<svg width="170" height="78" viewBox="0 0 170 78" fill="none" xmlns="http://www.w3.org/2000/svg">
<path d="M51.6943 77.2833C51.523 76.7379 51.8191 76.3374 51.9906 75.9279C53.8137 71.5738 56.0796 67.4325 58.1548 63.2C61.6432 56.0848 65.2495 49.0334 68.2076 41.6629C69.9617 37.2926 71.9196 32.9989 73.7136 28.6398C73.8537 28.2993 73.9786 27.6202 74.3967 27.812C74.9064 28.0458 74.4248 28.5696 74.2767 28.9297C72.044 34.359 69.8388 39.8002 67.5397 45.2014C65.2048 50.6866 62.3944 55.9482 59.7808 61.3019C57.2809 66.4228 54.7393 71.5233 52.2129 76.6311C52.102 76.8552 52.0567 77.1333 51.6943 77.2833ZM116.032 76.7999C115.608 75.359 115.192 73.9166 114.611 72.526C112.56 67.6194 110.285 62.7875 108.63 57.739C105.307 47.5951 101.01 37.8226 97.4513 27.772C97.3425 27.4647 97.3183 26.8471 96.8166 27.0349C96.375 27.2002 96.7733 27.6441 96.8613 27.9383C97.6828 30.6822 98.7572 33.338 99.8078 35.9962C105.161 49.5412 110.146 63.2267 115.443 76.7931C115.55 77.0692 115.592 77.4266 116.033 77.5237C116.173 77.2424 116.098 77.0225 116.032 76.7999ZM55.1996 11.9833C51.019 13.8943 46.8481 15.828 42.6784 17.7606C36.2774 20.7275 29.9436 23.841 23.5069 26.7334C18.5493 28.9611 13.5014 30.9951 8.74112 33.6429C8.39261 33.8367 7.93753 33.9187 7.66914 34.5835C24.3267 27.1709 40.5268 19.2628 56.8753 11.6625C56.2313 11.4716 55.7091 11.7504 55.1996 11.9833ZM51.6921 0.192001C45.9596 0.36872 40.2278 0.00769961 34.4932 0.214996C30.384 0.36356 26.2731 0.0912394 22.1627 0.0172577C17.0348 -0.0750512 11.9173 0.223716 6.79688 0.417412C4.71337 0.496228 2.62919 0.557419 0.545502 0.631516C0.319242 0.639574 -0.00898688 0.638993 0.000473022 0.920563C0.0118839 1.25996 0.359041 1.123 0.558487 1.11678C1.74519 1.07979 2.93103 1.01627 4.11748 0.970192C14.159 0.580106 24.2092 0.916278 34.2531 0.593948C40.4755 0.394259 46.7001 0.993665 52.9274 0.704231C53.284 0.687657 53.6726 0.796913 54.0248 0.400848C53.2236 0.153323 52.4528 0.168548 51.6921 0.192001ZM117.116 0.906975C118.302 0.943726 119.489 0.954839 120.675 0.984001C125.599 1.10501 130.506 0.54117 135.426 0.609512C139.969 0.672597 144.51 0.85415 149.053 0.917488C155.796 1.01152 162.54 0.872507 169.283 0.776169C169.553 0.77231 169.984 0.877192 169.999 0.497108C170.017 0.047523 169.568 0.234953 169.324 0.233322C166.082 0.211542 162.839 0.172502 159.597 0.203812C147.934 0.316492 136.269 0.141061 124.607 0.407532C122.206 0.462409 119.802 0.411721 117.399 0.428146C117.044 0.430576 116.64 0.315013 116.337 0.654091C116.531 0.9646 116.847 0.898639 117.116 0.906975ZM160.525 34.1342C154.757 31.4407 148.987 28.7643 143.448 25.6009C135.88 21.279 127.821 17.9058 120.154 13.7659C118.147 12.6818 116.023 11.8126 113.946 10.8585C113.775 10.78 113.514 10.5007 113.373 10.8537C113.277 11.0913 113.567 11.1672 113.737 11.2582C114.299 11.558 114.858 11.8622 115.429 12.1434C120.258 14.5227 125.118 16.8388 129.912 19.2851C140.223 24.5464 150.543 29.7883 160.92 34.9172C161.166 35.0386 161.398 35.2763 161.817 35.0513C161.485 34.5283 160.983 34.348 160.525 34.1342ZM84.7923 66.5462C84.8427 62.7553 84.9118 58.9645 84.9439 55.1734C85.0151 46.7797 85.1308 38.3859 84.9859 29.9919C84.9795 29.6226 85.1211 29.0068 84.5767 29.0249C84.0884 29.0411 84.3025 29.6352 84.2904 29.9741C84.0703 36.1375 84.5456 42.2959 84.3474 48.4655C84.1606 54.2788 84.2989 60.1026 84.3027 65.9218C84.303 66.2808 84.1953 66.6784 84.551 67.0246C84.7817 66.8923 84.7899 66.7243 84.7923 66.5462ZM36.6723 47.8399C36.8726 47.7391 37.0568 47.5916 37.2208 47.4356C39.5056 45.262 41.7655 43.0616 44.0726 40.912C46.7606 38.4075 49.5248 35.984 52.1912 33.4572C55.9704 29.876 59.6305 26.1728 63.2249 22.4055C63.4642 22.1547 63.6921 21.8917 63.9091 21.6215C64.0181 21.4859 64.1022 21.2998 63.9583 21.1516C63.7714 20.959 63.5863 21.0818 63.4356 21.232C63.026 21.6402 62.6258 22.0581 62.2152 22.4653C60.0381 24.6244 57.7532 26.6864 55.7056 28.9618C52.7751 32.2183 49.6529 35.2601 46.3227 38.094C43.079 40.8542 40.0917 43.8836 37.0329 46.8384C36.7862 47.0768 36.5746 47.3516 36.3784 47.5736C36.3926 47.8366 36.5372 47.9079 36.6723 47.8399ZM132.351 48.6427C132.197 48.1847 131.825 47.8903 131.5 47.5701C124.471 40.6406 117.82 33.3409 110.797 26.4047C109.232 24.8581 107.747 23.2358 106.269 21.6069C106.105 21.4265 105.892 21.1417 105.621 21.3878C105.349 21.6354 105.611 21.8569 105.782 22.0447C106.405 22.7293 107.024 23.4193 107.664 24.0883C111.826 28.4394 116.188 32.5919 120.398 36.8957C123.715 40.2878 126.839 43.8688 130.311 47.1117C130.93 47.6895 131.556 48.2588 132.179 48.8321C132.236 48.7689 132.294 48.7058 132.351 48.6427ZM101.229 24.9137C101.302 25.5849 101.72 26.112 102.072 26.6537C104.939 31.0705 107.764 35.5159 110.782 39.8335C111.412 40.7344 112.03 41.6438 112.665 42.5409C112.774 42.6956 112.932 42.9088 113.157 42.7372C113.339 42.599 113.181 42.4204 113.107 42.2737C113.043 42.145 112.959 42.0255 112.878 41.9059C109.723 37.2646 106.4 32.7359 103.603 27.8569C102.981 26.7734 102.175 25.7963 101.453 24.7703C101.378 24.8181 101.304 24.8659 101.229 24.9137ZM90.1997 28.9886C90.2023 29.8984 90.5561 30.7391 90.7227 31.6165C91.8273 37.4324 92.9177 43.2508 94.0255 49.066C94.1015 49.465 94.0908 50.2071 94.5071 50.1198C95.0218 50.0119 94.7315 49.34 94.6453 48.9239C93.5438 43.6087 92.2236 38.3371 91.557 32.9362C91.3742 31.4552 90.9444 30.0191 90.4977 28.552C90.1724 28.6966 90.1994 28.855 90.1997 28.9886ZM110.327 17.9082C111.2 18.7191 112.196 19.3658 113.172 20.0404C116.41 22.2771 119.651 24.508 122.753 26.935C123.731 27.7006 124.77 28.3907 125.793 29.0967C125.992 29.2334 126.298 29.4221 126.47 29.1105C126.608 28.8613 126.313 28.7063 126.135 28.5771C125.55 28.1525 124.958 27.7361 124.358 27.332C123.327 26.637 122.268 25.9809 121.254 25.2605C117.717 22.7456 114.389 19.9466 110.765 17.5505C110.475 17.3594 110.245 16.9711 109.768 17.1607C109.825 17.5197 110.102 17.6993 110.327 17.9082ZM115.502 6.27625C115.627 6.34053 115.747 6.44128 115.879 6.4637C118.586 6.92203 121.19 7.81471 123.884 8.33275C127.118 8.9548 130.225 10.0813 133.446 10.755C134.019 10.8748 134.623 11.1647 135.281 10.8593C134.977 10.4296 134.559 10.4048 134.178 10.3075C131.606 9.65074 129.02 9.06207 126.427 8.49079C123.781 7.90784 121.187 7.09582 118.557 6.4368C117.575 6.19076 116.566 5.97383 115.542 6.0602C115.529 6.13222 115.516 6.20424 115.502 6.27625ZM58.8916 16.5682C58.0908 17.1373 57.3083 17.7321 56.5098 18.3046C52.683 21.0481 48.8505 23.7837 45.0284 26.5338C44.5847 26.853 44.1865 27.2373 43.7813 27.6069C43.6455 27.7307 43.4099 27.8851 43.6162 28.1007C43.765 28.2561 43.9439 28.0952 44.0774 28.0034C44.7441 27.5449 45.3983 27.0682 46.0653 26.6101C48.3295 25.0547 50.2884 23.0967 52.6302 21.6435C54.8184 20.2856 56.9148 18.7961 58.941 17.2078C59.2517 16.9643 59.6272 16.7654 59.7301 16.2807C59.3125 16.1503 59.1135 16.4105 58.8916 16.5682ZM67.0733 26.6899C64.9156 30.1808 62.7404 33.6592 60.2878 36.9551C59.3548 38.2089 58.5268 39.5316 57.7543 40.8888C57.6152 41.1331 57.368 41.4905 57.6475 41.6655C57.9614 41.8619 58.1234 41.4454 58.2613 41.2163C61.2429 36.2628 64.6272 31.5724 67.7382 26.7038C68.1159 26.1129 68.5768 25.5575 68.6995 24.8208C67.9288 25.2669 67.5064 25.9892 67.0733 26.6899ZM79.161 28.8356C79.0821 29.1358 78.9861 29.4326 78.9271 29.7366C77.804 35.5163 76.7916 41.3181 75.4423 47.0525C75.3036 47.642 75.2165 48.2445 75.1277 48.8442C75.0947 49.0673 75.0774 49.3695 75.3764 49.4051C75.6742 49.4405 75.6939 49.1251 75.7653 48.9162C75.8019 48.8088 75.7987 48.688 75.8157 48.5735C76.6082 43.26 77.8004 38.0238 78.8504 32.7597C79.1052 31.4823 79.3605 30.1828 79.3879 28.8679C79.3122 28.8571 79.2366 28.8464 79.161 28.8356ZM35.6486 10.186C41.9506 8.86393 48.2584 7.56798 54.4706 5.84236C53.1772 5.64666 36.0467 9.6196 35.6486 10.186ZM137.464 11.27C137.38 11.2607 137.236 11.3535 137.2 11.4342C137.125 11.6047 137.27 11.7019 137.408 11.7406C138.41 12.02 139.392 12.4134 140.478 12.2883C139.545 11.7282 138.54 11.3902 137.464 11.27ZM115.962 46.9208C116.035 46.9396 116.178 46.9293 116.188 46.8993C116.22 46.8014 116.246 46.6665 116.202 46.5842C115.808 45.8409 115.32 45.1596 114.77 44.5232C114.669 44.4058 114.53 44.345 114.385 44.4196C114.327 44.4496 114.308 44.5541 114.291 44.5867C114.289 44.9284 115.685 46.8486 115.962 46.9208ZM41.7394 29.8396C41.8783 29.729 41.9682 29.5436 41.8572 29.3822C41.7301 29.1975 41.5405 29.3009 41.3978 29.3883C40.6639 29.8383 40.0097 30.379 39.5453 31.138C40.389 30.8663 41.0749 30.3688 41.7394 29.8396ZM95.1456 52.5288C95.1077 52.3705 95.0527 52.1707 94.8255 52.2001C94.6588 52.2217 94.5882 52.3661 94.6235 52.5201C94.8359 53.4458 94.8725 54.429 95.5257 55.224C95.6031 54.2909 95.3571 53.412 95.1456 52.5288ZM74.2684 54.0957C74.2562 54.1807 74.3425 54.3315 74.4215 54.3675C74.5951 54.4466 74.6852 54.2896 74.718 54.1571C74.927 53.3132 75.2379 52.4772 74.932 51.5718C74.3626 52.3307 74.3929 53.2335 74.2684 54.0957ZM54.6604 46.1269C55.3185 45.2748 56.183 44.561 56.3944 43.4189C55.6568 44.2205 54.8951 45.0072 54.6604 46.1269ZM131.467 32.4192C130.872 31.5805 130.021 31.0977 129.062 30.7514C129.687 31.5505 130.433 32.1932 131.467 32.4192ZM33.4769 10.5864C32.5313 10.7474 31.5232 10.6923 30.758 11.4268C31.7104 11.2798 32.7308 11.3562 33.4769 10.5864Z" fill="#AE9E75"/>
</svg>
