<svg width="184" height="34" viewBox="0 0 184 34" fill="none" xmlns="http://www.w3.org/2000/svg">
<path d="M54.4312 0.480247V7.21861L47.6381 12.2754H54.3714L61.1705 7.21861V0.480247H54.4312ZM54.4312 33.5138H61.1705V12.2754H54.4312V33.5138ZM159.028 2.32342V31.6766H161.721C171.932 31.6766 176.259 26.1111 176.259 17.0449C176.259 8.73863 171.734 2.32342 161.721 2.32342H159.028ZM152.288 0.480247H161.529C175.541 0.480247 183.483 7.51184 183.483 17.0928C183.483 26.913 175.397 33.5197 161.529 33.5197H152.288V0.480247ZM126.103 3.96911L114.073 33.5138H111.571L125.146 0.480247H131.646L144.208 33.5138H137.272L126.103 3.96911ZM81.095 2.31744V31.6766H83.7943C93.999 31.6766 98.3323 26.1111 98.3323 17.0449C98.3323 8.73863 93.8075 2.32342 83.7943 2.32342L81.095 2.31744ZM74.3617 0.480247H83.6028C97.6081 0.480247 105.556 7.51184 105.556 17.0928C105.556 26.913 97.4644 33.5197 83.6028 33.5197H74.3617V0.480247ZM31.951 5.86016L21.9438 33.5138H15.6295L5.08962 5.10614L2.77935 33.5138H0.516968L2.923 0.480247H10.1471L20.9263 30.1147L31.2806 0.480247H38.4509L41.2399 33.5138H34.5485L31.951 5.86016Z" fill="white" stroke="white"/>
</svg>
