<svg width="254" height="181" viewBox="0 0 254 181" fill="none" xmlns="http://www.w3.org/2000/svg">
<path d="M31.2125 176.099H30.4703L28.0338 180.818L28.0059 180.874H28.832L29.4061 179.712H32.2487L32.8088 180.846L32.8228 180.86H33.663L31.2265 176.113L31.2125 176.099ZM30.7084 177.135C30.7364 177.079 30.7644 177.009 30.7924 176.953C30.8064 176.925 30.8204 176.897 30.8204 176.869C30.8204 176.883 30.8344 176.911 30.8344 176.925V176.939C30.8484 176.981 30.8624 177.009 30.8904 177.051C30.9044 177.093 30.9324 177.135 30.9465 177.177L31.9126 179.095H29.7142L30.6804 177.205L30.7084 177.135Z" fill="white"/>
<path d="M43.1982 179.207C43.0022 179.642 42.9462 179.782 42.8061 180.16C42.6521 179.782 42.6101 179.67 42.386 179.194L40.9297 176.141L40.9158 176.127H39.9355V180.888H40.6357V177.933V177.821C40.6217 177.359 40.6217 177.177 40.6077 176.995C40.7057 177.247 40.7897 177.429 40.9858 177.821L42.4561 180.86L42.47 180.874H43.1282L44.7385 177.541L44.7665 177.485C44.8785 177.247 44.9345 177.135 45.0045 176.967C44.9765 177.205 44.9766 177.471 44.9766 178.129V180.86H45.6767V176.099H44.7105L43.1982 179.207Z" fill="white"/>
<path d="M49.012 176.113H48.2559V180.874H49.012V176.113Z" fill="white"/>
<path d="M55.9134 176.631C55.2693 176.099 54.6251 176.099 54.093 176.099H51.7266V180.86H53.6449C54.3591 180.86 55.3533 180.86 56.0394 180.174C56.2915 179.922 56.7115 179.348 56.7115 178.437C56.6975 177.443 56.2074 176.883 55.9134 176.631ZM53.7989 180.244H52.4687V176.743H54.121C54.5271 176.743 55.0452 176.757 55.4793 177.177C55.6613 177.345 55.9554 177.751 55.9554 178.451C55.9554 178.759 55.8994 179.221 55.5913 179.6C55.1292 180.188 54.4851 180.244 53.7989 180.244Z" fill="white"/>
<path d="M61.4313 176.099H60.6891L58.2526 180.818L58.2246 180.874H59.0508L59.6249 179.712H62.4675L63.0276 180.846L63.0416 180.86H63.8817L61.4453 176.113L61.4313 176.099ZM60.9271 177.135C60.9551 177.079 60.9832 177.009 61.0112 176.953C61.0252 176.925 61.0392 176.897 61.0392 176.869C61.0392 176.883 61.0532 176.911 61.0532 176.925V176.939C61.0672 176.981 61.0812 177.009 61.1092 177.051C61.1232 177.093 61.1512 177.135 61.1652 177.177L62.1314 179.095H59.919L60.8851 177.205L60.9271 177.135Z" fill="white"/>
<path d="M69.804 176.631C69.1599 176.099 68.5158 176.099 67.9837 176.099H65.6172V180.86H67.5356C68.2497 180.86 69.2439 180.86 69.9301 180.174C70.1821 179.922 70.6022 179.348 70.6022 178.437C70.5882 177.443 70.0981 176.883 69.804 176.631ZM67.6896 180.244H66.3593V176.743H68.0117C68.4178 176.743 68.9359 176.757 69.37 177.177C69.552 177.345 69.8461 177.751 69.8461 178.451C69.8461 178.759 69.79 179.221 69.482 179.6C69.0199 180.188 68.3758 180.244 67.6896 180.244Z" fill="white"/>
<path d="M82.2529 177.527C82.2529 176.953 81.9869 176.631 81.8188 176.491C81.4127 176.113 80.8947 176.113 80.4746 176.099H77.2539V180.86H77.9821V178.983H80.1945L81.7768 180.846L81.7908 180.86H82.757L81.0207 178.871C81.3847 178.815 82.2529 178.619 82.2529 177.527ZM81.4967 177.555C81.4967 177.737 81.4408 177.905 81.3427 178.031C81.0767 178.381 80.6146 178.381 80.2785 178.381H77.9961V176.757H80.5586C80.8526 176.757 81.1747 176.771 81.3707 177.093C81.4407 177.205 81.4967 177.373 81.4967 177.555Z" fill="white"/>
<path d="M85.6129 178.718H89.1836V178.087H85.6129V176.757H89.2816V176.113H84.8848V180.874H89.4497V180.23H85.6129V178.718Z" fill="white"/>
<path d="M94.4371 176.099H93.695L91.2585 180.818L91.2305 180.874H92.0566L92.6307 179.712H95.4733L96.0334 180.846L96.0474 180.86H96.8876L94.4511 176.113L94.4371 176.099ZM93.933 177.135C93.961 177.079 93.989 177.009 94.017 176.953C94.031 176.925 94.045 176.897 94.045 176.869C94.045 176.883 94.059 176.911 94.059 176.925V176.939C94.073 176.981 94.087 177.009 94.115 177.051C94.129 177.093 94.1571 177.135 94.1711 177.177L95.1373 179.095H92.9388L93.905 177.205L93.933 177.135Z" fill="white"/>
<path d="M99.7438 176.113H99.0156V180.874H102.866V180.23H99.7438V176.113Z" fill="white"/>
<path d="M109.865 178.718H113.436V178.087H109.865V176.757H113.534V176.113H109.123V180.874H113.702V180.23H109.865V178.718Z" fill="white"/>
<path d="M119.527 178.171C119.345 178.129 119.163 178.101 118.925 178.073C118.715 178.045 118.491 178.031 118.295 178.017C118.085 178.003 117.875 177.975 117.665 177.961C117.217 177.919 116.993 177.877 116.839 177.695C116.755 177.597 116.713 177.485 116.713 177.359C116.713 177.219 116.769 176.967 117.119 176.799C117.399 176.659 117.875 176.617 118.239 176.617C118.841 176.617 119.303 176.743 119.667 177.009C119.765 177.079 119.821 177.135 119.891 177.205L119.947 177.261L120.619 176.995L120.591 176.953C120.451 176.757 120.339 176.631 120.115 176.477C120.003 176.393 119.835 176.365 119.709 176.295C119.681 176.281 119.667 176.267 119.639 176.267C119.233 176.113 118.799 176.001 118.239 176.001C117.399 176.001 115.999 176.183 115.999 177.401C115.999 177.737 116.111 177.989 116.349 178.213C116.713 178.549 117.119 178.577 118.309 178.675H118.323C119.233 178.76 119.947 178.816 119.947 179.432C119.947 180.006 119.359 180.342 118.393 180.342C117.665 180.342 117.105 180.188 116.657 179.894C116.475 179.782 116.405 179.698 116.335 179.614L116.321 179.6L115.648 179.88L115.676 179.922C115.802 180.118 116.153 180.622 117.133 180.86C117.455 180.944 117.945 181 118.351 181C119.387 181 120.087 180.748 120.437 180.244C120.605 180.006 120.675 179.74 120.675 179.446C120.633 178.563 119.947 178.269 119.527 178.171ZM116.713 177.569C116.713 177.555 116.699 177.541 116.699 177.541C116.699 177.555 116.713 177.569 116.713 177.569Z" fill="white"/>
<path d="M122.26 176.743H124.164V180.874H124.906V176.743H126.825V176.113H122.26V176.743Z" fill="white"/>
<path d="M130.927 176.099H130.185L127.749 180.818L127.721 180.874H128.547L129.121 179.712H131.964L132.524 180.846L132.538 180.86H133.378L130.941 176.113L130.927 176.099ZM130.409 177.149C130.437 177.079 130.465 177.023 130.493 176.953C130.507 176.925 130.521 176.897 130.521 176.869C130.521 176.883 130.521 176.883 130.535 176.897L130.549 176.939C130.563 176.981 130.577 177.009 130.605 177.051C130.619 177.093 130.647 177.135 130.661 177.177L131.627 179.095H129.415L130.381 177.205L130.409 177.149Z" fill="white"/>
<path d="M134.371 176.743H136.275V180.874H137.018V176.743H138.936V176.113H134.371V176.743Z" fill="white"/>
<path d="M141.806 178.718H145.377V178.087H141.806V176.757H145.475V176.113H141.078V180.874H145.643V180.23H141.806V178.718Z" fill="white"/>
<path d="M156.341 176.631C155.697 176.099 155.053 176.099 154.521 176.099H152.154V180.86H154.073C154.787 180.86 155.781 180.86 156.467 180.174C156.719 179.922 157.139 179.362 157.139 178.437C157.139 177.443 156.635 176.883 156.341 176.631ZM154.241 180.244H152.91V176.743H154.563C154.969 176.743 155.487 176.757 155.907 177.177C156.089 177.345 156.383 177.751 156.383 178.451C156.383 178.759 156.327 179.221 156.033 179.6C155.571 180.188 154.913 180.244 154.241 180.244Z" fill="white"/>
<path d="M160.107 178.718H163.678V178.087H160.107V176.757H163.776V176.113H159.379V180.874H163.944V180.23H160.107V178.718Z" fill="white"/>
<path d="M168.244 179.67C168.16 179.852 168.132 179.922 168.09 180.062C168.034 179.894 168.006 179.81 167.908 179.6L166.27 176.127L166.256 176.113H165.443L167.726 180.86L167.74 180.874H168.454L170.68 176.155L170.708 176.099H169.896L168.244 179.67Z" fill="white"/>
<path d="M173.298 178.718H176.869V178.087H173.298V176.757H176.967V176.113H172.57V180.874H177.135V180.23H173.298V178.718Z" fill="white"/>
<path d="M180.228 176.113H179.5V180.874H183.337V180.23H180.228V176.113Z" fill="white"/>
<path d="M187.681 176.001C186.925 176.001 186.225 176.225 185.721 176.617C185.133 177.079 184.811 177.737 184.811 178.549C184.811 179.586 185.343 180.16 185.777 180.468C185.889 180.552 186.029 180.58 186.155 180.65C186.197 180.678 186.239 180.692 186.295 180.706C186.561 180.818 186.869 180.888 187.191 180.93C187.205 180.93 187.205 180.93 187.219 180.93C187.387 180.944 187.541 180.986 187.723 180.986C189.151 180.986 190.58 180.23 190.58 178.549C190.594 177.037 189.417 176.001 187.681 176.001ZM189.852 178.493C189.852 180.216 188.227 180.356 187.737 180.356C186.939 180.356 186.337 180.132 185.959 179.684C185.609 179.292 185.553 178.774 185.553 178.507C185.553 177.163 186.617 176.659 187.611 176.631C187.639 176.631 187.667 176.631 187.695 176.631C188.367 176.631 188.955 176.841 189.333 177.205C189.67 177.541 189.852 177.975 189.852 178.493ZM188.031 176.631C188.073 176.631 188.129 176.645 188.171 176.659C188.129 176.645 188.087 176.631 188.031 176.631ZM188.871 176.855C188.955 176.897 189.039 176.953 189.109 176.995C189.025 176.953 188.955 176.897 188.871 176.855Z" fill="white"/>
<path d="M195.449 176.113H192.551V180.874H193.293V178.998H195.505C195.953 178.998 196.682 178.998 197.116 178.409C197.27 178.185 197.368 177.877 197.368 177.583C197.368 177.163 197.2 176.771 196.892 176.519C196.57 176.225 196.15 176.113 195.449 176.113ZM193.293 176.743H195.351C195.687 176.743 196.108 176.743 196.374 177.009C196.514 177.149 196.584 177.331 196.584 177.555C196.584 177.835 196.458 178.073 196.248 178.213C196.009 178.367 195.687 178.367 195.435 178.367H193.307V176.743H193.293Z" fill="white"/>
<path d="M202.604 179.208C202.408 179.642 202.338 179.782 202.212 180.16C202.058 179.782 202.002 179.67 201.792 179.194L200.336 176.141L200.322 176.127H199.342V180.888H200.042V177.934V177.836C200.028 177.373 200.028 177.191 200.014 177.009C200.112 177.247 200.196 177.429 200.392 177.836L201.862 180.874L201.876 180.888H202.534L204.145 177.555L204.173 177.499C204.285 177.261 204.341 177.149 204.397 176.995C204.369 177.233 204.369 177.499 204.369 178.158V180.888H205.069V176.127H204.103L202.604 179.208Z" fill="white"/>
<path d="M208.136 178.718H211.707V178.087H208.136V176.757H211.805V176.113H207.408V180.874H211.973V180.23H208.136V178.718Z" fill="white"/>
<path d="M218.246 179.39V179.432C218.246 179.656 218.246 179.74 218.274 179.964C218.106 179.754 218.05 179.698 217.854 179.474L214.69 176.113L214.676 176.099H213.934V180.86H214.648V177.681C214.648 177.331 214.648 177.219 214.62 176.981C214.718 177.093 214.774 177.163 214.914 177.331L218.232 180.846L218.246 180.86H218.947V176.099H218.232V179.39H218.246Z" fill="white"/>
<path d="M221.092 176.113V176.743H223.01V180.874H223.752V176.743H225.671V176.113H221.092Z" fill="white"/>
<path d="M0 153.429C0 153.008 0.056018 152.588 0.182043 152.196C0.308068 151.804 0.490103 151.454 0.728151 151.146C0.966198 150.838 1.24625 150.6 1.58232 150.418C1.91839 150.236 2.29646 150.152 2.71654 150.152C3.09462 150.152 3.44469 150.222 3.76675 150.376C4.08882 150.53 4.36886 150.74 4.60691 151.02C4.84495 151.3 5.02699 151.65 5.15301 152.056C5.27904 152.462 5.34905 152.91 5.34905 153.429C5.34905 153.765 5.29306 154.073 5.19504 154.381C5.09702 154.675 4.92897 154.941 4.71893 155.179C4.49489 155.417 4.21484 155.599 3.87878 155.739C3.52871 155.879 3.12263 155.949 2.63253 155.949C2.24045 155.949 1.89037 155.893 1.56831 155.795C1.24624 155.697 0.966198 155.543 0.728151 155.333C0.490103 155.123 0.322071 154.871 0.182043 154.549C0.0700208 154.227 0 153.863 0 153.429ZM2.68853 151.076C2.40848 151.076 2.17043 151.132 1.94639 151.258C1.72234 151.384 1.54031 151.538 1.38628 151.748C1.23225 151.958 1.12023 152.196 1.03621 152.462C0.952197 152.742 0.910172 153.022 0.910172 153.317C0.910172 153.625 0.952189 153.877 1.05021 154.101C1.13423 154.325 1.26026 154.493 1.42829 154.633C1.58232 154.773 1.77835 154.871 1.98839 154.927C2.19843 154.983 2.43648 155.025 2.68853 155.025C2.91258 155.025 3.13662 154.997 3.36066 154.941C3.5707 154.885 3.76675 154.801 3.93478 154.675C4.10281 154.549 4.22885 154.381 4.34087 154.171C4.43889 153.961 4.4949 153.695 4.4949 153.373C4.4949 152.994 4.45289 152.672 4.35487 152.378C4.27085 152.098 4.13082 151.846 3.97679 151.65C3.82276 151.454 3.62672 151.314 3.41668 151.202C3.16463 151.118 2.92658 151.076 2.68853 151.076ZM0.980191 147.687C0.980191 147.519 1.03621 147.365 1.16223 147.253C1.28826 147.141 1.42828 147.071 1.61031 147.071C1.77835 147.071 1.93239 147.127 2.05841 147.253C2.18444 147.379 2.24045 147.519 2.24045 147.687C2.24045 147.855 2.18444 148.009 2.05841 148.135C1.93239 148.262 1.77835 148.318 1.61031 148.318C1.42828 148.318 1.28826 148.262 1.16223 148.135C1.03621 148.009 0.980191 147.869 0.980191 147.687ZM2.92658 147.687C2.92658 147.519 2.98259 147.365 3.10862 147.253C3.23464 147.141 3.38866 147.071 3.5567 147.071C3.72473 147.071 3.87877 147.127 4.0048 147.253C4.13082 147.379 4.18684 147.519 4.18684 147.687C4.18684 147.855 4.13082 148.009 4.0048 148.135C3.87877 148.262 3.72473 148.318 3.5567 148.318C3.38866 148.318 3.23464 148.262 3.10862 148.135C2.9966 148.009 2.92658 147.869 2.92658 147.687Z" fill="white"/>
<path d="M12.9233 155.851C12.7693 155.851 12.6293 155.823 12.4893 155.767C12.3492 155.711 12.2232 155.641 12.1252 155.557C12.0131 155.473 11.9151 155.389 11.8311 155.291C11.7471 155.193 11.6771 155.109 11.6351 155.039C11.5231 155.235 11.3971 155.389 11.243 155.501C11.089 155.613 10.9209 155.697 10.7669 155.753C10.5989 155.809 10.4309 155.837 10.2768 155.851C10.1088 155.865 9.96878 155.865 9.84275 155.865H6.58008V154.955H9.84275C9.94077 154.955 10.0528 154.955 10.1648 154.941C10.2768 154.927 10.3888 154.913 10.5008 154.871C10.5989 154.829 10.6969 154.773 10.7669 154.689C10.8369 154.605 10.8789 154.493 10.8789 154.353C10.8789 154.227 10.8509 154.1 10.7949 153.96C10.7389 153.82 10.6689 153.666 10.5849 153.512C10.5009 153.344 10.3888 153.176 10.2628 152.994C10.1368 152.812 10.0108 152.616 9.87074 152.406L8.69451 150.67L9.52067 150.138L10.7249 152.028C10.8509 152.224 10.977 152.42 11.103 152.644C11.229 152.868 11.369 153.078 11.4951 153.302C11.6211 153.526 11.7611 153.736 11.8871 153.932C12.0132 154.128 12.1392 154.311 12.2652 154.465C12.3912 154.619 12.5033 154.745 12.6293 154.829C12.7413 154.913 12.8533 154.969 12.9513 154.969H13.0074C13.1754 154.969 13.3014 154.997 13.3855 155.053C13.4695 155.109 13.5115 155.221 13.5115 155.403C13.5115 155.501 13.4974 155.585 13.4834 155.655C13.4554 155.711 13.4275 155.767 13.3855 155.795C13.3434 155.823 13.2874 155.851 13.2314 155.865C13.1754 155.879 13.0914 155.879 13.0074 155.879H12.9233V155.851Z" fill="white"/>
<path d="M12.9807 155.851C12.8127 155.851 12.6866 155.823 12.6026 155.767C12.5186 155.711 12.4766 155.585 12.4766 155.417C12.4766 155.319 12.4906 155.235 12.5046 155.165C12.5326 155.109 12.5606 155.053 12.6026 155.025C12.6446 154.997 12.7006 154.969 12.7566 154.955C12.8266 154.941 12.8967 154.941 12.9807 154.941H19.0999C19.0999 154.241 19.0159 153.639 18.8479 153.148C18.6798 152.658 18.4557 152.252 18.1617 151.944C17.8676 151.636 17.5176 151.412 17.0975 151.272C16.6774 151.132 16.2293 151.062 15.7252 151.062C15.4592 151.062 15.1931 151.076 14.9131 151.118C14.633 151.16 14.395 151.202 14.1709 151.244V150.432C14.367 150.376 14.619 150.32 14.927 150.25C15.2211 150.194 15.5432 150.152 15.8932 150.152C16.6354 150.152 17.2515 150.278 17.7836 150.53C18.3017 150.782 18.7358 151.132 19.0579 151.566C19.38 152 19.632 152.504 19.772 153.078C19.9261 153.653 19.9961 154.269 19.9961 154.913V155.851H12.9807ZM16.1593 157.783C16.1593 157.601 16.2153 157.447 16.3413 157.335C16.4674 157.209 16.6074 157.153 16.7894 157.153C16.9575 157.153 17.1115 157.209 17.2375 157.335C17.3636 157.461 17.4195 157.615 17.4195 157.783C17.4195 157.951 17.3636 158.105 17.2375 158.231C17.1115 158.357 16.9715 158.414 16.7894 158.414C16.6214 158.414 16.4674 158.357 16.3413 158.231C16.2293 158.105 16.1593 157.965 16.1593 157.783Z" fill="white"/>
<path d="M33.0867 155.851C33.0867 156.481 33.0027 157.013 32.8487 157.447C32.6947 157.881 32.4426 158.231 32.1205 158.497C31.7985 158.763 31.3784 158.959 30.8743 159.071C30.3702 159.183 29.7821 159.254 29.096 159.254C27.7937 159.254 26.7995 158.987 26.1273 158.455C25.4552 157.923 25.1191 157.097 25.1191 155.963V153.806H26.0294V155.725C26.0294 156.201 26.0993 156.621 26.2254 156.943C26.3514 157.279 26.5475 157.545 26.8135 157.755C27.0796 157.965 27.4016 158.119 27.7797 158.203C28.1578 158.301 28.6059 158.343 29.124 158.343C29.6561 158.343 30.1181 158.301 30.5102 158.217C30.9023 158.133 31.2103 158.007 31.4624 157.811C31.7144 157.615 31.8965 157.363 32.0085 157.041C32.1206 156.719 32.1906 156.313 32.1906 155.823V151.132H33.0867V153.12C33.0867 153.4 33.1007 153.652 33.1428 153.876C33.1708 154.1 33.2548 154.297 33.3668 154.451C33.4788 154.605 33.6609 154.731 33.8849 154.815C34.1089 154.899 34.417 154.941 34.8231 154.941C35.0752 154.941 35.2852 154.927 35.4812 154.899C35.6633 154.871 35.8313 154.815 35.9433 154.731C36.0693 154.647 36.1674 154.521 36.2234 154.353C36.2794 154.185 36.3214 153.96 36.3214 153.666V151.132H37.2176V153.106C37.2176 153.386 37.2316 153.638 37.2736 153.862C37.3156 154.087 37.3856 154.283 37.4976 154.437C37.6097 154.591 37.7637 154.717 37.9457 154.801C38.1417 154.885 38.3798 154.927 38.6878 154.927C38.8839 154.927 39.08 154.913 39.248 154.885C39.416 154.857 39.57 154.801 39.696 154.717C39.8221 154.633 39.9201 154.507 40.0041 154.339C40.0741 154.171 40.1162 153.946 40.1162 153.652V150.348H41.0123V153.078C41.0123 153.358 41.0403 153.61 41.0823 153.834C41.1244 154.058 41.1944 154.255 41.2924 154.409C41.3904 154.563 41.5304 154.689 41.6845 154.773C41.8525 154.857 42.0485 154.899 42.3006 154.899C42.4686 154.899 42.5946 154.927 42.6786 154.983C42.7627 155.039 42.8047 155.151 42.8047 155.333C42.8047 155.431 42.7907 155.515 42.7767 155.585C42.7487 155.641 42.7207 155.697 42.6786 155.725C42.6366 155.753 42.5806 155.781 42.5246 155.795C42.4686 155.809 42.3846 155.809 42.3006 155.809C41.9505 155.809 41.6564 155.753 41.4044 155.627C41.1523 155.515 40.9423 155.291 40.7883 154.969C40.6062 155.263 40.3682 155.487 40.0741 155.613C39.7661 155.753 39.416 155.823 39.0099 155.823C38.8279 155.823 38.6318 155.809 38.4358 155.781C38.2398 155.753 38.0577 155.711 37.8757 155.655C37.6937 155.599 37.5396 155.501 37.3996 155.389C37.2596 155.277 37.1336 155.123 37.0495 154.941C36.9235 155.137 36.7975 155.277 36.6575 155.389C36.5174 155.501 36.3494 155.599 36.1814 155.655C36.0133 155.711 35.8173 155.753 35.6073 155.767C35.3972 155.781 35.1592 155.795 34.9071 155.795C34.6971 155.795 34.501 155.781 34.319 155.753C34.1509 155.725 33.9829 155.683 33.8429 155.627C33.7029 155.571 33.5628 155.501 33.4368 155.403C33.3108 155.319 33.1988 155.221 33.1007 155.109V155.851H33.0867ZM35.1312 147.687C35.1312 147.519 35.1871 147.365 35.3132 147.253C35.4392 147.141 35.5792 147.071 35.7613 147.071C35.9293 147.071 36.0833 147.127 36.2094 147.253C36.3354 147.379 36.3914 147.519 36.3914 147.687C36.3914 147.855 36.3354 148.009 36.2094 148.135C36.0833 148.261 35.9293 148.317 35.7613 148.317C35.5792 148.317 35.4392 148.261 35.3132 148.135C35.1871 148.009 35.1312 147.869 35.1312 147.687ZM36.1394 145.867C36.1394 145.699 36.1953 145.545 36.3214 145.433C36.4474 145.321 36.5874 145.251 36.7695 145.251C36.8535 145.251 36.9375 145.265 37.0215 145.307C37.1055 145.335 37.1756 145.391 37.2316 145.447C37.2876 145.503 37.3296 145.573 37.3716 145.643C37.3996 145.713 37.4276 145.797 37.4276 145.881C37.4276 145.965 37.4136 146.049 37.3716 146.119C37.3296 146.189 37.2876 146.259 37.2316 146.329C37.1756 146.385 37.1055 146.427 37.0215 146.469C36.9375 146.497 36.8535 146.525 36.7695 146.525C36.6014 146.525 36.4474 146.469 36.3214 146.343C36.1953 146.203 36.1394 146.049 36.1394 145.867ZM37.0775 147.687C37.0775 147.519 37.1335 147.365 37.2596 147.253C37.3856 147.141 37.5396 147.071 37.7077 147.071C37.8757 147.071 38.0297 147.127 38.1557 147.253C38.2818 147.379 38.3378 147.519 38.3378 147.687C38.3378 147.855 38.2818 148.009 38.1557 148.135C38.0297 148.261 37.8757 148.317 37.7077 148.317C37.5396 148.317 37.3856 148.261 37.2596 148.135C37.1476 148.009 37.0775 147.869 37.0775 147.687Z" fill="white"/>
<path d="M42.303 155.851C42.1349 155.851 42.0089 155.823 41.9248 155.767C41.8408 155.711 41.7988 155.585 41.7988 155.417C41.7988 155.319 41.8129 155.235 41.8269 155.165C41.8549 155.109 41.8828 155.053 41.9248 155.025C41.9669 154.997 42.0229 154.969 42.0789 154.955C42.1489 154.941 42.2189 154.941 42.303 154.941H43.2551C43.4512 154.941 43.6472 154.927 43.8433 154.913C44.0253 154.899 44.1933 154.857 44.3333 154.787C44.4734 154.717 44.5854 154.605 44.6834 154.437C44.7674 154.283 44.8094 154.059 44.8094 153.764V150.362H45.7056V153.092C45.7056 153.372 45.7336 153.638 45.7756 153.863C45.8176 154.087 45.8876 154.283 45.9997 154.437C46.0977 154.591 46.2377 154.717 46.3917 154.801C46.5598 154.885 46.7558 154.927 47.0079 154.927C47.1759 154.927 47.302 154.955 47.386 155.011C47.47 155.067 47.512 155.179 47.512 155.361C47.512 155.459 47.498 155.543 47.484 155.613C47.4559 155.669 47.428 155.725 47.386 155.753C47.344 155.781 47.2879 155.809 47.2319 155.823C47.1759 155.837 47.0919 155.837 47.0079 155.837C46.8398 155.837 46.6718 155.823 46.5318 155.795C46.3917 155.767 46.2377 155.725 46.1117 155.655C45.9857 155.585 45.8737 155.501 45.7616 155.389C45.6636 155.277 45.5796 155.151 45.5096 154.983C45.3975 155.151 45.2715 155.291 45.1315 155.403C44.9915 155.515 44.8514 155.599 44.6834 155.669C44.5154 155.739 44.3193 155.781 44.1093 155.795C43.8992 155.823 43.6612 155.823 43.3952 155.823H42.303V155.851ZM43.5912 157.797C43.5912 157.629 43.6472 157.475 43.7732 157.349C43.8993 157.223 44.0393 157.167 44.2213 157.167C44.3894 157.167 44.5434 157.223 44.6694 157.349C44.7954 157.475 44.8515 157.629 44.8515 157.797C44.8515 157.979 44.7954 158.133 44.6694 158.245C44.5434 158.371 44.4034 158.427 44.2213 158.427C44.0393 158.427 43.8993 158.371 43.7732 158.245C43.6612 158.119 43.5912 157.979 43.5912 157.797ZM45.5516 157.797C45.5516 157.629 45.6076 157.475 45.7336 157.349C45.8596 157.223 45.9997 157.167 46.1817 157.167C46.3497 157.167 46.5038 157.223 46.6298 157.349C46.7558 157.475 46.8118 157.629 46.8118 157.797C46.8118 157.979 46.7558 158.133 46.6298 158.245C46.5038 158.371 46.3637 158.427 46.1817 158.427C46.0137 158.427 45.8596 158.371 45.7336 158.245C45.6216 158.119 45.5516 157.979 45.5516 157.797Z" fill="white"/>
<path d="M46.965 155.851C46.797 155.851 46.671 155.823 46.587 155.767C46.5029 155.711 46.4609 155.585 46.4609 155.417C46.4609 155.319 46.4749 155.235 46.4889 155.165C46.5029 155.109 46.5449 155.053 46.587 155.025C46.629 154.997 46.685 154.969 46.741 154.955C46.797 154.941 46.881 154.941 46.965 154.941H49.4435V150.376H50.3537V155.851H46.965ZM49.1915 147.687C49.1915 147.519 49.2475 147.365 49.3735 147.253C49.4995 147.141 49.6395 147.071 49.8076 147.071C49.8916 147.071 49.9756 147.085 50.0596 147.113C50.1436 147.141 50.2137 147.183 50.2697 147.239C50.3257 147.295 50.3677 147.365 50.4097 147.435C50.4377 147.505 50.4657 147.589 50.4657 147.673C50.4657 147.757 50.4517 147.841 50.4097 147.911C50.3677 147.981 50.3257 148.051 50.2697 148.121C50.2137 148.178 50.1436 148.22 50.0596 148.262C49.9756 148.29 49.8916 148.304 49.8076 148.304C49.6395 148.304 49.4855 148.248 49.3735 148.121C49.2475 148.009 49.1915 147.869 49.1915 147.687Z" fill="white"/>
<path d="M53.73 150.376H54.6402V155.417C54.6402 156.089 54.5981 156.663 54.5281 157.153C54.4441 157.629 54.3181 158.035 54.1221 158.343C53.926 158.651 53.66 158.889 53.3379 159.029C53.0158 159.169 52.5957 159.253 52.0916 159.253H51.6855V158.329H52.0916C52.4697 158.329 52.7638 158.259 52.9878 158.133C53.2119 158.007 53.3659 157.811 53.4779 157.545C53.5899 157.293 53.66 156.971 53.688 156.579C53.716 156.201 53.73 155.753 53.73 155.249V150.376Z" fill="white"/>
<path d="M61.9344 155.851C61.8924 156.481 61.7803 157.013 61.5703 157.433C61.3743 157.867 61.0942 158.217 60.7582 158.483C60.4221 158.749 60.016 158.945 59.5399 159.057C59.0778 159.169 58.5597 159.24 57.9856 159.24H57.2995V158.315H57.9156C58.3357 158.315 58.7417 158.273 59.1198 158.189C59.4979 158.105 59.834 157.979 60.114 157.783C60.3941 157.587 60.6181 157.335 60.7861 157.027C60.9542 156.705 61.0382 156.313 61.0382 155.837H59.1338C58.7557 155.837 58.4057 155.781 58.0696 155.683C57.7475 155.585 57.4535 155.431 57.2154 155.207C56.9774 154.997 56.7954 154.717 56.6553 154.395C56.5153 154.058 56.4453 153.666 56.4453 153.204C56.4453 152.812 56.5013 152.434 56.6273 152.056C56.7533 151.692 56.9354 151.356 57.1734 151.076C57.4115 150.796 57.7055 150.558 58.0416 150.39C58.3917 150.222 58.7838 150.138 59.2178 150.138C59.7079 150.138 60.128 150.222 60.4641 150.404C60.8142 150.586 61.0942 150.838 61.3043 151.16C61.5143 151.482 61.6824 151.86 61.7804 152.322C61.8784 152.77 61.9344 153.274 61.9344 153.806V154.927H62.9566C63.1246 154.927 63.2506 154.955 63.3347 155.011C63.4187 155.067 63.4607 155.179 63.4607 155.361C63.4607 155.459 63.4467 155.543 63.4327 155.613C63.4187 155.669 63.3767 155.725 63.3347 155.753C63.2926 155.781 63.2367 155.809 63.1806 155.823C63.1246 155.837 63.0406 155.837 62.9566 155.837H61.9344V155.851ZM57.3415 153.106C57.3415 153.722 57.4955 154.17 57.8176 154.479C58.1396 154.787 58.6017 154.941 59.2178 154.941H61.0382V153.68C61.0382 153.316 61.0102 152.966 60.9402 152.63C60.8702 152.308 60.7721 152.014 60.6181 151.776C60.4641 151.538 60.2681 151.342 60.03 151.202C59.792 151.062 59.4979 150.992 59.1478 150.992C58.8398 150.992 58.5737 151.048 58.3497 151.174C58.1256 151.3 57.9436 151.454 57.7896 151.65C57.6355 151.846 57.5235 152.07 57.4535 152.322C57.3695 152.602 57.3415 152.854 57.3415 153.106Z" fill="white"/>
<path d="M62.9709 155.851C62.8028 155.851 62.6768 155.823 62.5928 155.767C62.5088 155.711 62.4668 155.585 62.4668 155.417C62.4668 155.319 62.4808 155.235 62.4948 155.165C62.5228 155.109 62.5508 155.053 62.5928 155.025C62.6348 154.997 62.6909 154.969 62.7469 154.955C62.8169 154.941 62.8869 154.941 62.9709 154.941H66.5136C66.7236 154.941 66.9197 154.927 67.0877 154.885C67.2697 154.843 67.4098 154.787 67.5358 154.703C67.6618 154.619 67.7598 154.493 67.8298 154.353C67.8999 154.213 67.9279 154.031 67.9279 153.807C67.9279 153.513 67.8439 153.191 67.6618 152.869C67.4798 152.547 67.2137 152.225 66.8777 151.916C66.5416 151.608 66.1215 151.3 65.6314 151.006C65.1413 150.712 64.5812 150.446 63.9651 150.194V149.13L68.642 146.091V147.114L64.8473 149.578C65.6594 149.942 66.3175 150.306 66.8216 150.698C67.3257 151.09 67.7318 151.468 68.0259 151.832C68.32 152.211 68.516 152.561 68.628 152.911C68.74 153.247 68.796 153.569 68.796 153.835C68.796 154.031 68.7681 154.241 68.726 154.479C68.684 154.717 68.572 154.927 68.418 155.137C68.2639 155.347 68.0259 155.515 67.7178 155.655C67.4098 155.795 67.0037 155.865 66.4716 155.865H62.9709V155.851Z" fill="white"/>
<path d="M76.8058 155.487C76.8058 156.145 76.7638 156.719 76.6938 157.181C76.6098 157.657 76.4838 158.049 76.2877 158.358C76.0917 158.666 75.8396 158.89 75.5036 159.03C75.1815 159.17 74.7614 159.254 74.2713 159.254H73.8652V158.33H74.2713C74.6494 158.33 74.9435 158.26 75.1675 158.133C75.3916 158.007 75.5456 157.811 75.6576 157.545C75.7697 157.293 75.8397 156.971 75.8677 156.579C75.8957 156.201 75.9097 155.753 75.9097 155.249V150.376H76.8198V153.092C76.8198 153.387 76.8339 153.639 76.8759 153.863C76.9039 154.087 76.9739 154.283 77.0719 154.437C77.1699 154.591 77.2959 154.717 77.464 154.801C77.632 154.885 77.8421 154.927 78.1081 154.927C78.2762 154.927 78.4022 154.955 78.4862 155.011C78.5702 155.067 78.6122 155.179 78.6122 155.361C78.6122 155.459 78.5982 155.543 78.5842 155.613C78.5562 155.669 78.5282 155.725 78.4862 155.753C78.4442 155.781 78.3881 155.809 78.3321 155.823C78.2621 155.837 78.1921 155.837 78.1081 155.837C77.7721 155.837 77.492 155.781 77.2959 155.683C77.0859 155.585 76.9319 155.431 76.8198 155.207V155.487H76.8058ZM75.6996 147.687C75.6996 147.519 75.7556 147.365 75.8816 147.253C75.9937 147.141 76.1477 147.071 76.3157 147.071C76.3997 147.071 76.4838 147.085 76.5678 147.113C76.6518 147.141 76.7218 147.183 76.7778 147.239C76.8338 147.295 76.8899 147.365 76.9179 147.435C76.9599 147.505 76.9739 147.589 76.9739 147.673C76.9739 147.757 76.9599 147.841 76.9179 147.911C76.8899 147.981 76.8338 148.051 76.7778 148.121C76.7218 148.178 76.6518 148.22 76.5678 148.262C76.4838 148.29 76.3997 148.304 76.3157 148.304C76.1477 148.304 75.9937 148.248 75.8816 148.121C75.7556 148.009 75.6996 147.869 75.6996 147.687Z" fill="white"/>
<path d="M78.0666 155.851C77.8985 155.851 77.7725 155.823 77.6885 155.767C77.6045 155.711 77.5625 155.585 77.5625 155.417C77.5625 155.319 77.5765 155.235 77.5905 155.165C77.6045 155.109 77.6465 155.053 77.6885 155.025C77.7305 154.997 77.7866 154.969 77.8426 154.955C77.8986 154.941 77.9826 154.941 78.0666 154.941H80.5451V150.376H81.4553V155.851H78.0666ZM80.2931 147.687C80.2931 147.519 80.349 147.365 80.4751 147.253C80.6011 147.141 80.7412 147.071 80.9092 147.071C80.9932 147.071 81.0772 147.085 81.1612 147.113C81.2452 147.141 81.3152 147.183 81.3713 147.239C81.4273 147.295 81.4693 147.365 81.5113 147.435C81.5393 147.505 81.5673 147.589 81.5673 147.673C81.5673 147.757 81.5533 147.841 81.5113 147.911C81.4693 147.981 81.4273 148.051 81.3713 148.121C81.3152 148.178 81.2452 148.22 81.1612 148.262C81.0772 148.29 80.9932 148.304 80.9092 148.304C80.7412 148.304 80.5871 148.248 80.4751 148.121C80.349 148.009 80.2931 147.869 80.2931 147.687Z" fill="white"/>
<path d="M85.9343 155.851C85.6262 155.851 85.3041 155.809 84.9961 155.725C84.688 155.641 84.408 155.487 84.1699 155.291C83.9179 155.081 83.7218 154.815 83.5678 154.479C83.4138 154.143 83.3438 153.723 83.3438 153.233C83.3438 152.841 83.3998 152.462 83.5258 152.084C83.6518 151.72 83.8338 151.384 84.0719 151.104C84.3099 150.824 84.604 150.586 84.9541 150.418C85.3041 150.25 85.7102 150.166 86.1583 150.166C86.6624 150.166 87.0825 150.264 87.4186 150.46C87.7546 150.656 88.0347 150.922 88.2447 151.258C88.4548 151.594 88.6088 151.986 88.6928 152.42C88.7768 152.869 88.8328 153.331 88.8328 153.807V155.473C88.8328 156.159 88.7348 156.747 88.5528 157.223C88.3708 157.7 88.1047 158.092 87.7546 158.386C87.4045 158.68 86.9985 158.904 86.5084 159.03C86.0183 159.17 85.4722 159.24 84.87 159.24H84.1979V158.316H84.786C85.2201 158.316 85.6262 158.274 86.0043 158.19C86.3823 158.106 86.7184 157.98 86.9985 157.784C87.2785 157.587 87.5026 157.335 87.6706 157.027C87.8386 156.719 87.9226 156.327 87.9226 155.851V155.291C87.6566 155.459 87.3625 155.599 87.0545 155.697C86.7324 155.809 86.3684 155.851 85.9343 155.851ZM84.2259 153.107C84.2259 153.457 84.2819 153.751 84.3799 153.975C84.478 154.213 84.604 154.395 84.772 154.549C84.9401 154.689 85.1361 154.801 85.3602 154.857C85.5842 154.913 85.8222 154.955 86.0743 154.955C86.4803 154.955 86.8444 154.885 87.1665 154.759C87.4745 154.633 87.7406 154.493 87.9367 154.325V153.765C87.9367 153.387 87.9086 153.037 87.8386 152.701C87.7686 152.364 87.6706 152.07 87.5306 151.832C87.3905 151.58 87.1945 151.384 86.9705 151.244C86.7464 151.104 86.4523 151.02 86.1163 151.02C85.7802 151.02 85.4862 151.09 85.2621 151.216C85.0241 151.342 84.828 151.51 84.674 151.706C84.52 151.902 84.4079 152.126 84.3379 152.378C84.2539 152.617 84.2259 152.869 84.2259 153.107Z" fill="white"/>
<path d="M92.923 155.487C92.923 156.145 92.881 156.719 92.811 157.181C92.727 157.657 92.601 158.049 92.4049 158.358C92.2089 158.666 91.9568 158.89 91.6208 159.03C91.2987 159.17 90.8786 159.254 90.3885 159.254H89.9824V158.33H90.3885C90.7666 158.33 91.0606 158.26 91.2847 158.133C91.5087 158.007 91.6628 157.811 91.7748 157.545C91.8868 157.293 91.9568 156.971 91.9848 156.579C92.0128 156.201 92.0268 155.753 92.0268 155.249V150.376H92.937V153.092C92.937 153.387 92.951 153.639 92.993 153.863C93.021 154.087 93.0911 154.283 93.1891 154.437C93.2871 154.591 93.4131 154.717 93.5811 154.801C93.7492 154.885 93.9592 154.927 94.2253 154.927C94.3933 154.927 94.5193 154.955 94.6034 155.011C94.6874 155.067 94.7294 155.179 94.7294 155.361C94.7294 155.459 94.7154 155.543 94.7014 155.613C94.6733 155.669 94.6454 155.725 94.6034 155.753C94.5614 155.781 94.5053 155.809 94.4493 155.823C94.3793 155.837 94.3093 155.837 94.2253 155.837C93.8892 155.837 93.6092 155.781 93.4131 155.683C93.2031 155.585 93.0491 155.431 92.937 155.207V155.487H92.923ZM91.8028 147.687C91.8028 147.519 91.8588 147.365 91.9848 147.253C92.0968 147.141 92.2509 147.071 92.4189 147.071C92.5029 147.071 92.587 147.085 92.671 147.113C92.755 147.141 92.825 147.183 92.881 147.239C92.937 147.295 92.993 147.365 93.021 147.435C93.0631 147.505 93.077 147.589 93.077 147.673C93.077 147.757 93.0631 147.841 93.021 147.911C92.993 147.981 92.937 148.051 92.881 148.121C92.825 148.178 92.755 148.22 92.671 148.262C92.587 148.29 92.5029 148.304 92.4189 148.304C92.2509 148.304 92.0968 148.248 91.9848 148.121C91.8588 148.009 91.8028 147.869 91.8028 147.687Z" fill="white"/>
<path d="M94.2112 155.851C94.0431 155.851 93.9171 155.823 93.8331 155.767C93.749 155.711 93.707 155.585 93.707 155.417C93.707 155.319 93.721 155.235 93.735 155.165C93.763 155.109 93.791 155.053 93.8331 155.025C93.8751 154.997 93.9311 154.969 93.9871 154.955C94.0571 154.941 94.1271 154.941 94.2112 154.941H95.1633C95.3594 154.941 95.5554 154.927 95.7514 154.913C95.9335 154.899 96.1015 154.857 96.2415 154.787C96.3816 154.717 96.4936 154.605 96.5916 154.437C96.6756 154.283 96.7176 154.059 96.7176 153.764V150.362H97.6278V153.092C97.6278 153.372 97.6558 153.638 97.6978 153.863C97.7398 154.087 97.8099 154.283 97.9219 154.437C98.0199 154.591 98.1599 154.717 98.314 154.801C98.482 154.885 98.678 154.927 98.9301 154.927C99.0981 154.927 99.2241 154.955 99.3081 155.011C99.3922 155.067 99.4342 155.179 99.4342 155.361C99.4342 155.459 99.4202 155.543 99.4062 155.613C99.3782 155.669 99.3502 155.725 99.3081 155.753C99.2661 155.781 99.2101 155.809 99.1541 155.823C99.0981 155.837 99.0141 155.837 98.9301 155.837C98.7621 155.837 98.594 155.823 98.454 155.795C98.314 155.767 98.1599 155.725 98.0339 155.655C97.9079 155.585 97.7958 155.501 97.6838 155.389C97.5858 155.277 97.5018 155.151 97.4318 154.983C97.3198 155.151 97.1937 155.291 97.0537 155.403C96.9137 155.515 96.7737 155.599 96.6056 155.669C96.4376 155.739 96.2415 155.781 96.0315 155.795C95.8215 155.823 95.5834 155.823 95.3173 155.823H94.2112V155.851ZM95.5134 157.797C95.5134 157.629 95.5694 157.475 95.6954 157.349C95.8215 157.223 95.9615 157.167 96.1435 157.167C96.3115 157.167 96.4656 157.223 96.5916 157.349C96.7176 157.475 96.7736 157.629 96.7736 157.797C96.7736 157.979 96.7176 158.133 96.5916 158.245C96.4656 158.371 96.3255 158.427 96.1435 158.427C95.9615 158.427 95.8215 158.371 95.6954 158.245C95.5694 158.119 95.5134 157.979 95.5134 157.797ZM97.4598 157.797C97.4598 157.629 97.5158 157.475 97.6418 157.349C97.7678 157.223 97.9079 157.167 98.0899 157.167C98.2579 157.167 98.412 157.223 98.538 157.349C98.664 157.475 98.72 157.629 98.72 157.797C98.72 157.979 98.664 158.133 98.538 158.245C98.412 158.371 98.2719 158.427 98.0899 158.427C97.9219 158.427 97.7678 158.371 97.6418 158.245C97.5298 158.119 97.4598 157.979 97.4598 157.797Z" fill="white"/>
<path d="M98.9142 155.851C98.7462 155.851 98.6202 155.823 98.5362 155.767C98.4522 155.711 98.4102 155.585 98.4102 155.417C98.4102 155.319 98.4241 155.235 98.4381 155.165C98.4662 155.109 98.4942 155.053 98.5362 155.025C98.5782 154.997 98.6342 154.969 98.6902 154.955C98.7602 154.941 98.8302 154.941 98.9142 154.941H99.0682C99.4323 154.941 99.7544 154.927 99.9924 154.899C100.244 154.871 100.441 154.815 100.595 154.731C100.749 154.647 100.861 154.52 100.917 154.352C100.973 154.184 101.015 153.96 101.015 153.666V151.118H101.925V153.106C101.925 153.386 101.939 153.638 101.981 153.862C102.009 154.086 102.093 154.282 102.205 154.436C102.317 154.59 102.499 154.717 102.723 154.801C102.947 154.885 103.269 154.927 103.647 154.927C103.899 154.927 104.109 154.913 104.291 154.885C104.473 154.857 104.627 154.801 104.753 154.717C104.879 154.633 104.977 154.506 105.033 154.338C105.089 154.17 105.131 153.946 105.131 153.652V151.118H106.042V153.092C106.042 153.372 106.056 153.624 106.098 153.848C106.14 154.072 106.21 154.268 106.322 154.422C106.434 154.577 106.574 154.703 106.77 154.787C106.966 154.871 107.204 154.913 107.498 154.913H108.912V150.348H109.822V155.823H107.498C107.162 155.823 106.854 155.767 106.574 155.655C106.294 155.543 106.07 155.333 105.86 155.011C105.72 155.193 105.58 155.347 105.426 155.445C105.271 155.557 105.103 155.641 104.921 155.697C104.739 155.753 104.543 155.795 104.319 155.795C104.109 155.809 103.871 155.823 103.619 155.823C103.437 155.823 103.241 155.809 103.045 155.795C102.849 155.767 102.667 155.725 102.485 155.669C102.317 155.613 102.149 155.515 102.009 155.403C101.869 155.291 101.743 155.137 101.659 154.955C101.547 155.123 101.421 155.249 101.295 155.361C101.169 155.473 101.001 155.557 100.819 155.627C100.623 155.697 100.385 155.753 100.104 155.781C99.8244 155.809 99.4603 155.823 99.0403 155.823H98.9142V155.851Z" fill="white"/>
<path d="M113.142 150.376H114.052V155.417C114.052 156.089 114.01 156.663 113.94 157.153C113.856 157.629 113.73 158.035 113.534 158.343C113.338 158.651 113.072 158.889 112.75 159.029C112.428 159.169 112.008 159.253 111.504 159.253H111.098V158.329H111.504C111.882 158.329 112.176 158.259 112.4 158.133C112.624 158.007 112.778 157.811 112.89 157.545C113.002 157.293 113.072 156.971 113.1 156.579C113.128 156.201 113.142 155.753 113.142 155.249V150.376Z" fill="white"/>
<path d="M121.348 155.851C121.306 156.481 121.194 157.013 120.984 157.433C120.788 157.867 120.508 158.217 120.172 158.483C119.836 158.749 119.43 158.945 118.954 159.057C118.492 159.169 117.974 159.24 117.4 159.24H116.714V158.315H117.33C117.75 158.315 118.156 158.273 118.534 158.189C118.912 158.105 119.248 157.979 119.528 157.783C119.808 157.587 120.032 157.335 120.2 157.027C120.368 156.705 120.452 156.313 120.452 155.837H118.548C118.17 155.837 117.82 155.781 117.484 155.683C117.162 155.585 116.868 155.431 116.63 155.207C116.391 154.997 116.209 154.717 116.069 154.395C115.929 154.058 115.859 153.666 115.859 153.204C115.859 152.812 115.915 152.434 116.041 152.056C116.167 151.692 116.349 151.356 116.588 151.076C116.826 150.796 117.12 150.558 117.456 150.39C117.806 150.222 118.198 150.138 118.632 150.138C119.122 150.138 119.542 150.222 119.878 150.404C120.228 150.586 120.508 150.838 120.718 151.16C120.928 151.482 121.096 151.86 121.194 152.322C121.292 152.77 121.348 153.274 121.348 153.806V154.927H122.371C122.539 154.927 122.665 154.955 122.749 155.011C122.833 155.067 122.875 155.179 122.875 155.361C122.875 155.459 122.861 155.543 122.847 155.613C122.833 155.669 122.791 155.725 122.749 155.753C122.707 155.781 122.651 155.809 122.595 155.823C122.539 155.837 122.455 155.837 122.371 155.837H121.348V155.851ZM116.756 153.106C116.756 153.722 116.91 154.17 117.232 154.479C117.554 154.787 118.016 154.941 118.632 154.941H120.452V153.68C120.452 153.316 120.424 152.966 120.354 152.63C120.284 152.308 120.186 152.014 120.032 151.776C119.878 151.538 119.682 151.342 119.444 151.202C119.206 151.062 118.912 150.992 118.562 150.992C118.254 150.992 117.988 151.048 117.764 151.174C117.54 151.3 117.358 151.454 117.204 151.65C117.05 151.846 116.938 152.07 116.868 152.322C116.798 152.602 116.756 152.854 116.756 153.106Z" fill="white"/>
<path d="M122.383 155.851C122.215 155.851 122.089 155.823 122.005 155.767C121.921 155.711 121.879 155.585 121.879 155.417C121.879 155.319 121.893 155.235 121.907 155.165C121.935 155.109 121.963 155.053 122.005 155.025C122.047 154.997 122.103 154.969 122.159 154.955C122.229 154.941 122.299 154.941 122.383 154.941H124.385C124.287 154.843 124.189 154.717 124.105 154.577C124.021 154.437 123.951 154.283 123.895 154.129C123.839 153.975 123.797 153.807 123.769 153.639C123.741 153.471 123.727 153.303 123.727 153.12C123.727 152.742 123.797 152.364 123.923 152.014C124.049 151.664 124.231 151.342 124.469 151.062C124.707 150.782 125.002 150.572 125.352 150.404C125.702 150.236 126.08 150.166 126.528 150.166C126.878 150.166 127.2 150.208 127.466 150.292C127.732 150.376 127.97 150.502 128.18 150.642C128.376 150.796 128.544 150.964 128.67 151.174C128.796 151.37 128.908 151.594 128.978 151.818C129.062 152.042 129.104 152.28 129.146 152.518C129.174 152.756 129.202 152.994 129.202 153.219V155.851H122.383ZM124.637 153.05C124.637 153.373 124.693 153.653 124.792 153.877C124.89 154.115 125.044 154.311 125.226 154.465C125.408 154.619 125.618 154.745 125.87 154.815C126.122 154.899 126.388 154.927 126.668 154.927H128.292V153.233C128.292 152.98 128.264 152.714 128.208 152.448C128.152 152.182 128.068 151.958 127.928 151.748C127.788 151.538 127.62 151.37 127.382 151.244C127.158 151.118 126.864 151.048 126.514 151.048C126.22 151.048 125.968 151.104 125.73 151.188C125.492 151.286 125.296 151.426 125.142 151.594C124.988 151.776 124.861 151.986 124.763 152.224C124.679 152.504 124.637 152.77 124.637 153.05ZM125.912 147.687C125.912 147.519 125.968 147.365 126.094 147.253C126.206 147.141 126.36 147.071 126.528 147.071C126.612 147.071 126.696 147.085 126.78 147.113C126.864 147.141 126.934 147.183 126.99 147.239C127.046 147.295 127.102 147.365 127.13 147.435C127.172 147.505 127.186 147.589 127.186 147.673C127.186 147.757 127.172 147.841 127.13 147.911C127.102 147.981 127.046 148.051 126.99 148.121C126.934 148.178 126.864 148.22 126.78 148.262C126.696 148.29 126.612 148.304 126.528 148.304C126.36 148.304 126.206 148.248 126.094 148.121C125.982 148.009 125.912 147.869 125.912 147.687Z" fill="white"/>
<path d="M144.102 154.633C144.102 155.347 143.99 155.949 143.766 156.439C143.542 156.929 143.22 157.335 142.814 157.657C142.394 157.965 141.89 158.204 141.301 158.344C140.713 158.484 140.027 158.554 139.285 158.554C138.375 158.554 137.605 158.47 136.989 158.302C136.372 158.134 135.868 157.895 135.49 157.573C135.112 157.265 134.832 156.873 134.664 156.425C134.496 155.977 134.412 155.459 134.412 154.885V153.107H135.322V154.745C135.322 155.263 135.406 155.711 135.56 156.075C135.714 156.439 135.966 156.747 136.288 156.971C136.611 157.209 137.031 157.377 137.521 157.475C138.011 157.587 138.613 157.643 139.299 157.643C139.775 157.643 140.237 157.601 140.713 157.531C141.175 157.461 141.596 157.321 141.974 157.139C142.352 156.957 142.646 156.691 142.884 156.369C143.108 156.047 143.234 155.641 143.234 155.137V154.619C142.968 154.787 142.674 154.927 142.366 155.025C142.044 155.123 141.68 155.165 141.259 155.165C140.951 155.165 140.629 155.123 140.321 155.039C140.013 154.955 139.733 154.801 139.495 154.605C139.243 154.395 139.047 154.129 138.893 153.793C138.739 153.457 138.669 153.037 138.669 152.546C138.669 152.154 138.725 151.776 138.851 151.398C138.977 151.034 139.159 150.698 139.397 150.418C139.635 150.138 139.929 149.9 140.279 149.732C140.629 149.564 141.035 149.48 141.483 149.48C141.988 149.48 142.408 149.578 142.744 149.774C143.08 149.97 143.36 150.236 143.57 150.572C143.78 150.908 143.934 151.3 144.018 151.734C144.102 152.182 144.158 152.644 144.158 153.121V154.633H144.102ZM139.495 152.406C139.495 152.756 139.551 153.05 139.649 153.275C139.747 153.513 139.873 153.695 140.041 153.849C140.209 153.989 140.405 154.101 140.629 154.157C140.853 154.213 141.091 154.255 141.343 154.255C141.75 154.255 142.114 154.185 142.436 154.059C142.744 153.933 143.01 153.793 143.206 153.625V153.065C143.206 152.686 143.178 152.336 143.108 152C143.038 151.664 142.94 151.37 142.8 151.132C142.66 150.88 142.464 150.684 142.24 150.544C142.016 150.404 141.722 150.32 141.385 150.32C141.049 150.32 140.755 150.39 140.531 150.516C140.293 150.642 140.097 150.81 139.943 151.006C139.789 151.202 139.677 151.426 139.607 151.678C139.537 151.916 139.495 152.168 139.495 152.406ZM139.817 146.973C139.817 146.805 139.873 146.651 139.999 146.539C140.125 146.427 140.265 146.357 140.447 146.357C140.629 146.357 140.769 146.413 140.895 146.539C141.021 146.665 141.077 146.805 141.077 146.973C141.077 147.155 141.021 147.295 140.895 147.421C140.769 147.547 140.629 147.603 140.447 147.603C140.265 147.603 140.125 147.547 139.999 147.421C139.887 147.295 139.817 147.141 139.817 146.973ZM141.778 146.973C141.778 146.805 141.834 146.651 141.96 146.539C142.086 146.427 142.226 146.357 142.408 146.357C142.576 146.357 142.73 146.413 142.856 146.539C142.982 146.665 143.038 146.805 143.038 146.973C143.038 147.155 142.982 147.295 142.856 147.421C142.73 147.547 142.576 147.603 142.408 147.603C142.24 147.603 142.086 147.547 141.96 147.421C141.834 147.295 141.778 147.141 141.778 146.973Z" fill="white"/>
<path d="M151.747 155.851C151.593 155.851 151.453 155.823 151.313 155.767C151.173 155.711 151.047 155.641 150.949 155.557C150.837 155.473 150.739 155.389 150.655 155.291C150.571 155.193 150.501 155.109 150.459 155.039C150.347 155.235 150.221 155.389 150.067 155.501C149.913 155.613 149.745 155.697 149.591 155.753C149.423 155.809 149.255 155.837 149.101 155.851C148.933 155.865 148.793 155.865 148.667 155.865H145.418V154.955H148.681C148.779 154.955 148.891 154.955 149.003 154.941C149.115 154.927 149.227 154.913 149.339 154.871C149.437 154.829 149.535 154.773 149.605 154.689C149.675 154.605 149.717 154.493 149.717 154.353C149.717 154.227 149.689 154.1 149.633 153.96C149.577 153.82 149.507 153.666 149.423 153.512C149.339 153.344 149.227 153.176 149.101 152.994C148.975 152.812 148.849 152.616 148.709 152.406L147.532 150.67L148.359 150.138L149.563 152.028C149.689 152.224 149.815 152.42 149.941 152.644C150.067 152.868 150.207 153.078 150.333 153.302C150.459 153.526 150.599 153.736 150.725 153.932C150.851 154.128 150.991 154.311 151.103 154.465C151.229 154.619 151.341 154.745 151.467 154.829C151.579 154.913 151.691 154.969 151.789 154.969H151.845C152.013 154.969 152.139 154.997 152.223 155.053C152.307 155.109 152.349 155.221 152.349 155.403C152.349 155.501 152.335 155.585 152.321 155.655C152.293 155.711 152.265 155.767 152.223 155.795C152.181 155.823 152.125 155.851 152.069 155.865C152.013 155.879 151.943 155.879 151.845 155.879H151.747V155.851Z" fill="white"/>
<path d="M151.805 155.851C151.637 155.851 151.511 155.823 151.427 155.767C151.343 155.711 151.301 155.585 151.301 155.417C151.301 155.319 151.315 155.235 151.329 155.165C151.357 155.109 151.385 155.053 151.427 155.025C151.469 154.997 151.525 154.969 151.581 154.955C151.637 154.941 151.721 154.941 151.805 154.941H152.757C152.953 154.941 153.149 154.927 153.345 154.913C153.527 154.899 153.695 154.857 153.835 154.787C153.975 154.717 154.087 154.605 154.185 154.437C154.269 154.283 154.311 154.059 154.311 153.765V150.362H155.222V153.092C155.222 153.373 155.25 153.639 155.292 153.863C155.334 154.087 155.404 154.283 155.516 154.437C155.614 154.591 155.754 154.717 155.908 154.801C156.076 154.885 156.272 154.927 156.524 154.927C156.692 154.927 156.818 154.955 156.902 155.011C156.986 155.067 157.028 155.179 157.028 155.361C157.028 155.459 157.014 155.543 157 155.613C156.972 155.669 156.944 155.725 156.902 155.753C156.86 155.781 156.804 155.809 156.748 155.823C156.692 155.837 156.608 155.837 156.524 155.837C156.356 155.837 156.188 155.823 156.048 155.795C155.894 155.767 155.754 155.725 155.628 155.655C155.502 155.585 155.39 155.501 155.278 155.389C155.18 155.277 155.096 155.151 155.026 154.983C154.914 155.151 154.787 155.291 154.647 155.403C154.507 155.515 154.367 155.599 154.199 155.669C154.031 155.739 153.835 155.781 153.625 155.795C153.415 155.823 153.177 155.823 152.911 155.823H151.805V155.851ZM154.157 147.687C154.157 147.519 154.213 147.365 154.339 147.253C154.451 147.141 154.605 147.071 154.773 147.071C154.858 147.071 154.942 147.085 155.026 147.113C155.11 147.141 155.18 147.183 155.236 147.239C155.292 147.295 155.348 147.365 155.376 147.435C155.418 147.505 155.432 147.589 155.432 147.673C155.432 147.757 155.418 147.841 155.376 147.911C155.348 147.981 155.292 148.051 155.236 148.121C155.18 148.178 155.11 148.22 155.026 148.262C154.942 148.29 154.858 148.304 154.773 148.304C154.605 148.304 154.451 148.248 154.339 148.121C154.213 148.009 154.157 147.869 154.157 147.687Z" fill="white"/>
<path d="M156.51 155.851C156.342 155.851 156.216 155.823 156.132 155.767C156.048 155.711 156.006 155.585 156.006 155.417C156.006 155.319 156.02 155.235 156.034 155.165C156.062 155.109 156.09 155.053 156.132 155.025C156.174 154.997 156.23 154.969 156.286 154.955C156.356 154.941 156.426 154.941 156.51 154.941H158.512C158.414 154.843 158.316 154.717 158.232 154.577C158.148 154.437 158.078 154.283 158.022 154.129C157.966 153.975 157.924 153.807 157.896 153.639C157.868 153.471 157.854 153.303 157.854 153.12C157.854 152.742 157.91 152.364 158.05 152.014C158.176 151.664 158.358 151.342 158.596 151.062C158.834 150.782 159.128 150.572 159.465 150.404C159.815 150.236 160.193 150.166 160.641 150.166C160.991 150.166 161.313 150.208 161.579 150.292C161.845 150.376 162.083 150.502 162.293 150.642C162.489 150.796 162.657 150.964 162.783 151.174C162.909 151.37 163.021 151.594 163.091 151.818C163.175 152.042 163.217 152.28 163.259 152.518C163.287 152.756 163.315 152.994 163.315 153.219V155.851H156.51ZM158.75 153.05C158.75 153.373 158.806 153.653 158.904 153.877C159.002 154.115 159.156 154.311 159.339 154.465C159.521 154.619 159.731 154.745 159.983 154.815C160.235 154.899 160.501 154.927 160.781 154.927H162.405V153.233C162.405 152.98 162.377 152.714 162.335 152.448C162.279 152.182 162.195 151.958 162.055 151.748C161.915 151.538 161.733 151.37 161.509 151.244C161.285 151.118 160.991 151.048 160.627 151.048C160.333 151.048 160.081 151.104 159.843 151.188C159.605 151.286 159.409 151.426 159.255 151.594C159.1 151.776 158.974 151.986 158.876 152.224C158.792 152.504 158.75 152.77 158.75 153.05ZM160.039 147.687C160.039 147.519 160.095 147.365 160.221 147.253C160.333 147.141 160.487 147.071 160.655 147.071C160.739 147.071 160.823 147.085 160.907 147.113C160.991 147.141 161.061 147.183 161.117 147.239C161.173 147.295 161.229 147.365 161.257 147.435C161.299 147.505 161.313 147.589 161.313 147.673C161.313 147.757 161.299 147.841 161.257 147.911C161.229 147.981 161.173 148.051 161.117 148.121C161.061 148.178 160.991 148.22 160.907 148.262C160.823 148.29 160.753 148.304 160.655 148.304C160.487 148.304 160.333 148.248 160.221 148.121C160.095 148.009 160.039 147.869 160.039 147.687Z" fill="white"/>
<path d="M175.369 151.468V152.308H168.172V151.468H175.369Z" fill="white"/>
<path d="M182.191 154.675C182.023 154.675 181.841 154.661 181.645 154.633C181.449 154.605 181.253 154.563 181.057 154.493C180.861 154.423 180.678 154.325 180.496 154.213C180.314 154.101 180.16 153.947 180.02 153.765C179.88 153.583 179.768 153.358 179.698 153.106C179.614 152.854 179.572 152.546 179.572 152.21C179.572 151.692 179.656 151.258 179.824 150.908C179.992 150.558 180.216 150.264 180.496 150.054C180.777 149.83 181.099 149.676 181.449 149.578C181.813 149.48 182.177 149.438 182.555 149.438H184.571V153.569C184.571 153.765 184.585 153.961 184.613 154.129C184.641 154.297 184.697 154.451 184.767 154.577C184.837 154.703 184.949 154.801 185.089 154.871C185.229 154.941 185.397 154.983 185.621 154.983H185.887C186.084 154.983 186.224 155.011 186.294 155.067C186.364 155.123 186.406 155.235 186.406 155.417C186.406 155.599 186.378 155.725 186.308 155.795C186.238 155.865 186.112 155.907 185.902 155.907H185.481C185.229 155.907 185.005 155.879 184.795 155.809C184.585 155.739 184.403 155.655 184.249 155.529C184.095 155.403 183.969 155.249 183.885 155.081C183.787 154.899 183.745 154.703 183.731 154.479C183.521 154.563 183.283 154.619 183.017 154.661C182.737 154.647 182.471 154.675 182.191 154.675ZM180.496 152.084C180.496 152.616 180.65 153.022 180.973 153.302C181.295 153.583 181.757 153.737 182.373 153.737C182.597 153.737 182.821 153.709 183.045 153.667C183.269 153.625 183.493 153.554 183.689 153.47V150.32H182.527C182.247 150.32 181.981 150.362 181.729 150.418C181.477 150.488 181.267 150.6 181.085 150.74C180.903 150.88 180.763 151.062 180.664 151.286C180.538 151.524 180.496 151.79 180.496 152.084ZM180.931 146.595C180.931 146.427 180.987 146.273 181.113 146.161C181.239 146.049 181.379 145.979 181.561 145.979C181.729 145.979 181.883 146.035 182.009 146.161C182.135 146.287 182.191 146.427 182.191 146.595C182.191 146.763 182.135 146.917 182.009 147.043C181.883 147.169 181.743 147.225 181.561 147.225C181.379 147.225 181.239 147.169 181.113 147.043C180.987 146.917 180.931 146.763 180.931 146.595ZM182.877 146.595C182.877 146.427 182.933 146.273 183.059 146.161C183.185 146.049 183.339 145.979 183.507 145.979C183.675 145.979 183.829 146.035 183.955 146.161C184.081 146.287 184.137 146.427 184.137 146.595C184.137 146.763 184.081 146.917 183.955 147.043C183.829 147.169 183.675 147.225 183.507 147.225C183.339 147.225 183.185 147.169 183.059 147.043C182.947 146.917 182.877 146.763 182.877 146.595Z" fill="white"/>
<path d="M185.875 155.851C185.707 155.851 185.581 155.823 185.497 155.767C185.413 155.711 185.371 155.585 185.371 155.417C185.371 155.319 185.385 155.235 185.399 155.165C185.427 155.109 185.455 155.053 185.497 155.025C185.539 154.997 185.595 154.969 185.651 154.955C185.721 154.941 185.791 154.941 185.875 154.941H186.001C186.281 154.941 186.533 154.927 186.743 154.899C186.953 154.871 187.121 154.815 187.261 154.731C187.402 154.647 187.5 154.521 187.57 154.353C187.64 154.184 187.668 153.96 187.668 153.666V151.426H188.578V153.106C188.578 153.386 188.592 153.638 188.606 153.862C188.634 154.086 188.69 154.283 188.774 154.437C188.858 154.591 188.998 154.717 189.18 154.801C189.362 154.885 189.6 154.927 189.908 154.927C190.034 154.563 190.188 154.185 190.384 153.792C190.58 153.414 190.804 153.036 191.056 152.686C191.308 152.336 191.588 152 191.896 151.692C192.204 151.384 192.541 151.118 192.891 150.88C193.255 150.656 193.633 150.474 194.039 150.334C194.445 150.194 194.879 150.138 195.313 150.138C195.789 150.138 196.223 150.208 196.587 150.362C196.965 150.516 197.273 150.726 197.54 151.006C197.792 151.286 197.988 151.636 198.128 152.042C198.268 152.448 198.324 152.91 198.324 153.442V155.837H190.132C189.642 155.837 189.264 155.781 188.97 155.655C188.69 155.529 188.48 155.305 188.34 154.983C188.256 155.151 188.144 155.291 187.99 155.403C187.836 155.515 187.668 155.599 187.472 155.669C187.275 155.739 187.037 155.781 186.785 155.795C186.533 155.823 186.253 155.823 185.959 155.823H185.875V155.851ZM197.428 154.941V153.75C197.428 153.358 197.386 153.008 197.301 152.672C197.217 152.336 197.091 152.056 196.909 151.818C196.727 151.58 196.489 151.398 196.195 151.258C195.901 151.118 195.551 151.048 195.131 151.048C194.795 151.048 194.473 151.104 194.165 151.216C193.857 151.328 193.563 151.468 193.283 151.664C193.003 151.846 192.737 152.07 192.499 152.322C192.26 152.574 192.036 152.84 191.826 153.134C191.616 153.428 191.448 153.722 191.28 154.03C191.126 154.339 191 154.647 190.902 154.955H197.428V154.941Z" fill="white"/>
<path d="M202.955 155.375C202.955 155.473 202.941 155.557 202.927 155.627C202.899 155.683 202.87 155.739 202.828 155.767C202.786 155.795 202.73 155.823 202.674 155.837C202.618 155.851 202.534 155.851 202.45 155.851H202.156C201.862 155.851 201.582 155.823 201.344 155.753C201.106 155.697 200.896 155.585 200.714 155.431C200.532 155.277 200.406 155.081 200.308 154.843C200.21 154.591 200.168 154.297 200.168 153.933V145.559H201.078V153.597C201.078 153.835 201.092 154.045 201.12 154.213C201.148 154.381 201.218 154.521 201.316 154.633C201.414 154.731 201.54 154.815 201.694 154.871C201.848 154.927 202.072 154.941 202.324 154.941H202.436C202.604 154.941 202.73 154.969 202.815 155.025C202.913 155.081 202.955 155.207 202.955 155.375Z" fill="white"/>
<path d="M202.453 155.851C202.285 155.851 202.159 155.823 202.075 155.767C201.991 155.711 201.949 155.585 201.949 155.417C201.949 155.319 201.963 155.235 201.977 155.165C202.005 155.109 202.033 155.053 202.075 155.025C202.117 154.997 202.173 154.969 202.229 154.955C202.299 154.941 202.369 154.941 202.453 154.941H208.573C208.573 154.241 208.489 153.639 208.321 153.149C208.152 152.658 207.928 152.252 207.634 151.944C207.34 151.636 206.99 151.412 206.57 151.272C206.15 151.132 205.702 151.062 205.198 151.062C204.932 151.062 204.666 151.076 204.386 151.118C204.12 151.16 203.868 151.202 203.644 151.244V150.432C203.84 150.376 204.092 150.32 204.4 150.25C204.694 150.194 205.016 150.152 205.366 150.152C206.094 150.152 206.724 150.278 207.256 150.53C207.774 150.782 208.208 151.132 208.531 151.566C208.853 152 209.105 152.504 209.259 153.079C209.413 153.653 209.483 154.269 209.483 154.913V155.851H202.453ZM204.82 147.715C204.82 147.547 204.876 147.393 205.002 147.281C205.114 147.155 205.268 147.099 205.436 147.099C205.52 147.099 205.604 147.113 205.688 147.141C205.772 147.169 205.842 147.225 205.898 147.281C205.954 147.337 206.01 147.407 206.038 147.477C206.08 147.547 206.094 147.631 206.094 147.715C206.094 147.799 206.08 147.884 206.038 147.954C206.01 148.038 205.954 148.094 205.898 148.164C205.842 148.22 205.772 148.262 205.688 148.304C205.604 148.332 205.52 148.36 205.436 148.36C205.268 148.36 205.114 148.304 205.002 148.178C204.876 148.038 204.82 147.884 204.82 147.715Z" fill="white"/>
<path d="M222.575 155.837C222.575 156.467 222.491 156.999 222.337 157.433C222.169 157.867 221.931 158.218 221.609 158.484C221.287 158.75 220.867 158.946 220.363 159.072C219.858 159.184 219.27 159.254 218.584 159.254C217.282 159.254 216.288 158.988 215.616 158.442C214.943 157.909 214.607 157.069 214.607 155.949V153.793H215.518V155.711C215.518 156.187 215.588 156.607 215.714 156.943C215.84 157.279 216.036 157.545 216.302 157.755C216.568 157.966 216.89 158.106 217.268 158.204C217.646 158.302 218.094 158.344 218.612 158.344C219.144 158.344 219.606 158.302 219.999 158.218C220.377 158.134 220.699 158.008 220.951 157.811C221.203 157.615 221.385 157.363 221.497 157.041C221.609 156.719 221.679 156.313 221.679 155.823V151.216H222.589V153.107C222.589 153.401 222.603 153.653 222.645 153.877C222.687 154.101 222.743 154.297 222.855 154.451C222.953 154.605 223.093 154.731 223.261 154.815C223.429 154.899 223.639 154.941 223.905 154.941C224.073 154.941 224.199 154.969 224.283 155.039C224.367 155.095 224.409 155.221 224.409 155.389C224.409 155.487 224.395 155.571 224.381 155.641C224.353 155.697 224.325 155.753 224.283 155.781C224.241 155.809 224.185 155.837 224.129 155.851C224.073 155.865 223.989 155.865 223.905 155.865C223.569 155.865 223.289 155.809 223.079 155.697C222.869 155.585 222.701 155.431 222.603 155.207V155.837H222.575ZM218.066 150.516C218.066 150.348 218.122 150.194 218.248 150.082C218.36 149.97 218.514 149.9 218.682 149.9C218.766 149.9 218.85 149.914 218.934 149.956C219.018 149.984 219.088 150.04 219.144 150.096C219.2 150.152 219.256 150.222 219.284 150.292C219.326 150.362 219.34 150.446 219.34 150.53C219.34 150.614 219.326 150.698 219.284 150.768C219.256 150.838 219.2 150.908 219.144 150.978C219.088 151.034 219.018 151.076 218.934 151.118C218.85 151.146 218.766 151.174 218.682 151.174C218.514 151.174 218.36 151.118 218.248 150.992C218.122 150.838 218.066 150.684 218.066 150.516Z" fill="white"/>
<path d="M223.877 155.851C223.709 155.851 223.583 155.823 223.499 155.767C223.415 155.711 223.373 155.585 223.373 155.417C223.373 155.319 223.387 155.235 223.401 155.165C223.429 155.109 223.457 155.053 223.499 155.025C223.541 154.997 223.597 154.969 223.653 154.955C223.723 154.941 223.793 154.941 223.877 154.941H227.42C227.63 154.941 227.826 154.927 227.994 154.885C228.176 154.843 228.316 154.787 228.442 154.703C228.568 154.619 228.666 154.493 228.736 154.353C228.806 154.213 228.834 154.031 228.834 153.807C228.834 153.513 228.75 153.191 228.568 152.869C228.386 152.547 228.134 152.225 227.784 151.916C227.448 151.608 227.028 151.3 226.538 151.006C226.048 150.712 225.487 150.446 224.871 150.194V149.13L229.548 146.091V147.114L225.753 149.578C226.566 149.942 227.224 150.306 227.728 150.698C228.232 151.09 228.638 151.468 228.932 151.832C229.226 152.211 229.422 152.561 229.534 152.911C229.646 153.247 229.702 153.569 229.702 153.835C229.702 154.031 229.674 154.241 229.632 154.479C229.59 154.717 229.478 154.927 229.324 155.137C229.17 155.347 228.932 155.515 228.624 155.655C228.316 155.795 227.91 155.865 227.378 155.865H223.877V155.851Z" fill="white"/>
<path d="M234.267 155.375C234.267 155.473 234.253 155.557 234.239 155.627C234.211 155.683 234.183 155.739 234.141 155.767C234.099 155.795 234.043 155.823 233.987 155.837C233.931 155.851 233.847 155.851 233.763 155.851H233.469C233.175 155.851 232.895 155.823 232.657 155.753C232.419 155.697 232.209 155.585 232.027 155.431C231.859 155.277 231.718 155.081 231.62 154.843C231.522 154.591 231.48 154.297 231.48 153.933V145.559H232.391V153.597C232.391 153.835 232.405 154.045 232.433 154.213C232.461 154.381 232.531 154.521 232.629 154.633C232.727 154.731 232.853 154.815 233.007 154.871C233.161 154.927 233.385 154.941 233.637 154.941H233.749C233.917 154.941 234.043 154.969 234.127 155.025C234.225 155.081 234.267 155.207 234.267 155.375Z" fill="white"/>
<path d="M245.974 155.851C245.624 155.851 245.33 155.795 245.078 155.683C244.826 155.571 244.616 155.361 244.462 155.053C244.266 155.333 244.014 155.543 243.72 155.669C243.425 155.795 243.075 155.865 242.655 155.865C242.473 155.865 242.277 155.851 242.081 155.823C241.885 155.795 241.703 155.753 241.521 155.697C241.339 155.641 241.185 155.543 241.045 155.431C240.905 155.319 240.779 155.165 240.695 154.983C240.569 155.179 240.429 155.319 240.275 155.431C240.121 155.543 239.953 155.641 239.785 155.697C239.603 155.753 239.407 155.795 239.197 155.809C238.987 155.823 238.749 155.837 238.482 155.837C238.3 155.837 238.104 155.823 237.908 155.809C237.712 155.781 237.53 155.739 237.348 155.683C237.166 155.627 237.012 155.529 236.872 155.417C236.732 155.305 236.606 155.151 236.522 154.969C236.41 155.137 236.284 155.263 236.158 155.375C236.032 155.487 235.864 155.571 235.682 155.641C235.486 155.711 235.248 155.767 234.968 155.795C234.674 155.823 234.324 155.837 233.904 155.837H233.778C233.609 155.837 233.483 155.809 233.399 155.753C233.315 155.697 233.273 155.571 233.273 155.403C233.273 155.305 233.287 155.221 233.301 155.151C233.329 155.095 233.357 155.039 233.399 155.011C233.441 154.983 233.497 154.955 233.553 154.941C233.623 154.927 233.694 154.927 233.778 154.927H233.932C234.296 154.927 234.604 154.913 234.856 154.885C235.108 154.857 235.304 154.801 235.458 154.717C235.612 154.633 235.724 154.507 235.78 154.339C235.836 154.171 235.878 153.947 235.878 153.652V151.104H236.788V153.092C236.788 153.372 236.802 153.624 236.844 153.849C236.872 154.073 236.956 154.269 237.068 154.423C237.18 154.577 237.362 154.703 237.586 154.787C237.81 154.871 238.118 154.913 238.51 154.913C238.763 154.913 238.973 154.899 239.155 154.871C239.337 154.843 239.491 154.787 239.617 154.703C239.743 154.619 239.827 154.493 239.897 154.325C239.953 154.157 239.981 153.933 239.981 153.638V151.104H240.891V153.078C240.891 153.358 240.919 153.61 240.947 153.835C240.989 154.059 241.059 154.255 241.171 154.409C241.283 154.563 241.423 154.689 241.605 154.773C241.787 154.857 242.039 154.899 242.333 154.899C242.529 154.899 242.725 154.885 242.893 154.857C243.061 154.829 243.215 154.773 243.341 154.689C243.467 154.605 243.565 154.479 243.649 154.311C243.719 154.143 243.762 153.919 243.762 153.624V150.32H244.672V153.05C244.672 153.33 244.686 153.582 244.728 153.807C244.756 154.031 244.826 154.227 244.924 154.381C245.022 154.535 245.148 154.661 245.316 154.745C245.484 154.829 245.694 154.871 245.96 154.871C246.128 154.871 246.254 154.899 246.338 154.955C246.422 155.011 246.464 155.123 246.464 155.305C246.464 155.403 246.45 155.487 246.436 155.557C246.408 155.613 246.38 155.669 246.338 155.697C246.296 155.725 246.24 155.753 246.184 155.767C246.128 155.851 246.058 155.851 245.974 155.851Z" fill="white"/>
<path d="M245.975 155.851C245.807 155.851 245.681 155.823 245.597 155.767C245.513 155.711 245.471 155.585 245.471 155.417C245.471 155.319 245.485 155.235 245.499 155.165C245.527 155.109 245.555 155.053 245.597 155.025C245.639 154.997 245.695 154.969 245.751 154.955C245.821 154.941 245.891 154.941 245.975 154.941H246.521C246.661 154.941 246.801 154.913 246.941 154.871C247.081 154.829 247.221 154.745 247.361 154.619C247.501 154.507 247.627 154.339 247.753 154.129C247.879 153.919 248.005 153.667 248.117 153.345C248.327 152.756 248.551 152.294 248.803 151.93C249.055 151.566 249.307 151.286 249.574 151.076C249.84 150.866 250.106 150.74 250.386 150.656C250.652 150.586 250.904 150.544 251.156 150.544C251.506 150.544 251.842 150.614 252.136 150.754C252.444 150.894 252.71 151.09 252.92 151.342C253.144 151.594 253.312 151.888 253.438 152.238C253.564 152.588 253.62 152.966 253.62 153.387C253.62 153.751 253.564 154.101 253.466 154.409C253.368 154.731 253.214 155.011 253.018 155.235C252.822 155.473 252.57 155.655 252.262 155.795C251.954 155.935 251.604 156.005 251.212 156.005C250.75 156.005 250.302 155.935 249.826 155.795C249.363 155.655 248.859 155.403 248.341 155.039C248.215 155.221 248.075 155.361 247.935 155.473C247.795 155.585 247.641 155.669 247.487 155.725C247.333 155.781 247.179 155.823 247.011 155.837C246.857 155.851 246.689 155.865 246.521 155.865H245.975V155.851ZM252.724 153.345C252.724 153.106 252.682 152.868 252.612 152.63C252.542 152.406 252.43 152.196 252.29 152.028C252.15 151.86 251.982 151.72 251.772 151.608C251.562 151.496 251.338 151.454 251.072 151.454C250.848 151.454 250.638 151.496 250.428 151.594C250.218 151.692 250.022 151.846 249.826 152.07C249.63 152.294 249.447 152.574 249.265 152.924C249.083 153.274 248.901 153.709 248.733 154.213C249.139 154.493 249.546 154.717 249.938 154.871C250.33 155.025 250.736 155.109 251.142 155.109C251.38 155.109 251.604 155.081 251.8 155.011C251.996 154.955 252.164 154.843 252.304 154.703C252.444 154.563 252.542 154.381 252.626 154.157C252.696 153.933 252.724 153.667 252.724 153.345Z" fill="white"/>
<path d="M35.4676 135.071C35.4676 135.533 35.4676 136.149 34.6975 136.457C34.2494 136.639 33.8153 136.639 33.6332 136.639C32.471 136.639 32.1209 136.079 31.8409 135.505L31.8269 135.477L30.8047 135.673L30.8327 135.729C30.9727 136.093 31.2668 136.835 32.1489 137.227C32.639 137.451 33.2832 137.535 33.7173 137.535C34.5995 137.535 35.7057 137.241 36.2098 136.401C36.4758 135.953 36.4758 135.519 36.4758 135.085V130.646H35.4676V135.071Z" fill="white"/>
<path d="M40.778 134.329H45.8331V133.474H40.778V131.556H45.9731V130.66H39.7559V137.381H46.2111V136.499H40.778V134.329Z" fill="white"/>
<path d="M54.9053 131.402C53.9951 130.66 53.0849 130.66 52.3428 130.66H48.9961V137.381H51.6987C52.7209 137.381 54.1071 137.381 55.0733 136.415C55.4234 136.051 56.0115 135.253 56.0115 133.965C56.0255 132.536 55.3254 131.752 54.9053 131.402ZM51.9227 136.513H50.0183V131.514H52.3848C52.9729 131.528 53.701 131.528 54.3032 132.13C54.5552 132.382 54.9893 132.942 54.9893 133.937C54.9893 134.385 54.9053 135.043 54.4852 135.589C53.7571 136.513 52.7069 136.513 51.9227 136.513Z" fill="white"/>
<path d="M64.7353 131.402C63.8252 130.66 62.915 130.66 62.1728 130.66H58.8262V137.381H61.5287C62.5509 137.381 63.9372 137.381 64.9034 136.415C65.2534 136.051 65.8415 135.253 65.8415 133.965C65.8555 132.536 65.1554 131.752 64.7353 131.402ZM61.7527 136.513H59.8483V131.514H62.2148C62.8029 131.528 63.5311 131.528 64.1332 132.13C64.3852 132.382 64.8194 132.942 64.8194 133.937C64.8194 134.385 64.7353 135.043 64.3152 135.589C63.6011 136.513 62.5369 136.513 61.7527 136.513Z" fill="white"/>
<path d="M72.1144 130.66H71.0782L67.6335 137.339L67.6055 137.395H68.7397L69.5519 135.757H73.5987L74.3968 137.381L74.4108 137.395H75.5731L72.1424 130.688L72.1144 130.66ZM71.5823 131.668C71.5963 131.71 71.6103 131.766 71.6243 131.808C71.6523 131.864 71.6803 131.92 71.7083 131.99C71.7363 132.046 71.7643 132.102 71.7783 132.158L73.1506 134.903H69.9719L71.3442 132.186L71.3862 132.102C71.4282 132.004 71.4702 131.92 71.5123 131.822C71.5403 131.78 71.5542 131.724 71.5823 131.668Z" fill="white"/>
<path d="M83.9613 133.376H78.9343V130.66H77.9121V137.381H78.9343V134.245H83.9613V137.381H84.9835V130.66H83.9613V133.376Z" fill="white"/>
<path d="M97.3331 130.66H96.2969L92.8522 137.339L92.8242 137.395H93.9584L94.7706 135.757H98.8174L99.6156 137.381L99.6296 137.395H100.792L97.3611 130.688L97.3331 130.66ZM96.787 131.668C96.801 131.71 96.815 131.766 96.829 131.808C96.857 131.864 96.885 131.92 96.913 131.99C96.941 132.046 96.969 132.102 96.983 132.158L98.3553 134.903H95.1767L96.549 132.186L96.591 132.102C96.633 132.004 96.675 131.92 96.717 131.822C96.745 131.78 96.773 131.724 96.787 131.668Z" fill="white"/>
<path d="M101.547 131.528H104.263V137.381H105.286V131.528H108.002V130.66H101.547V131.528Z" fill="white"/>
<path d="M115.311 131.528H118.027V137.381H119.035V131.528H121.766V130.66H115.311V131.528Z" fill="white"/>
<path d="M130.477 133.376H125.45V130.66H124.428V137.381H125.45V134.245H130.477V137.381H131.499V130.66H130.477V133.376Z" fill="white"/>
<path d="M135.856 134.329H140.911V133.474H135.856V131.556H141.065V130.66H134.848V137.381H141.289V136.499H135.856V134.329Z" fill="white"/>
<path d="M155.946 135.295C155.89 135.407 155.694 135.785 155.288 136.079C154.826 136.443 154.098 136.653 153.243 136.653C153.229 136.653 153.215 136.653 153.187 136.653C151.885 136.653 151.171 136.191 150.793 135.813C150.345 135.323 150.121 134.665 150.121 133.937C150.121 133.334 150.345 131.36 153.131 131.36C154.014 131.36 154.714 131.612 155.078 131.85C155.484 132.116 155.638 132.396 155.792 132.662L155.806 132.69L156.856 132.452L156.898 132.438L156.87 132.396C156.688 132.102 156.352 131.528 155.652 131.094C154.742 130.534 153.566 130.464 153.103 130.464C151.353 130.464 150.569 131.108 150.303 131.304C149.463 131.934 149.057 132.802 149.057 133.965C149.057 136.163 150.625 137.535 153.131 137.535C153.734 137.535 154.896 137.451 155.82 136.863C156.506 136.429 156.772 135.953 157.01 135.533L157.038 135.491L155.96 135.267L155.946 135.295Z" fill="white"/>
<path d="M163.273 130.506C162.209 130.506 161.229 130.814 160.501 131.374C159.661 132.018 159.227 132.97 159.227 134.105C159.227 135.561 159.969 136.387 160.585 136.821C161.271 137.311 162.209 137.563 163.343 137.563C165.36 137.563 167.376 136.499 167.376 134.119C167.376 131.962 165.724 130.52 163.273 130.506ZM163.343 136.667C162.209 136.667 161.355 136.345 160.809 135.715C160.305 135.155 160.235 134.427 160.235 134.035C160.235 132.13 161.747 131.402 163.175 131.36C163.217 131.36 163.259 131.36 163.301 131.36C164.268 131.36 165.094 131.654 165.64 132.186C166.116 132.648 166.368 133.278 166.368 134.007C166.354 136.485 164.044 136.667 163.343 136.667Z" fill="white"/>
<path d="M177.19 132.662C177.19 131.864 176.812 131.416 176.588 131.22C176 130.688 175.286 130.688 174.698 130.674H170.133V137.395H171.141V134.734H174.306L176.546 137.381L176.56 137.395H177.89L175.426 134.58C175.916 134.482 177.19 134.216 177.19 132.662ZM176.14 132.69C176.14 132.956 176.07 133.194 175.916 133.376C175.538 133.866 174.88 133.866 174.39 133.866H171.141V131.528H174.782C175.216 131.542 175.65 131.542 175.944 132.004C176.07 132.2 176.14 132.438 176.14 132.69Z" fill="white"/>
<path d="M186.461 135.281V135.337C186.461 135.687 186.475 135.799 186.503 136.149C186.237 135.827 186.167 135.743 185.873 135.421L181.392 130.66L181.378 130.646H180.355V137.367H181.336V132.886C181.336 132.382 181.322 132.228 181.294 131.85C181.448 132.032 181.532 132.144 181.742 132.382L186.461 137.367L186.475 137.381H187.455V130.66H186.475V135.281H186.461Z" fill="white"/>
<path d="M191.784 130.66H190.748V137.381H191.784V130.66Z" fill="white"/>
<path d="M201.528 135.295C201.472 135.407 201.276 135.785 200.87 136.079C200.408 136.443 199.68 136.653 198.825 136.653C198.811 136.653 198.798 136.653 198.77 136.653C197.467 136.653 196.753 136.191 196.375 135.813C195.927 135.323 195.703 134.665 195.703 133.937C195.703 133.334 195.927 131.36 198.713 131.36C199.596 131.36 200.296 131.612 200.66 131.85C201.066 132.116 201.22 132.396 201.374 132.662L201.388 132.69L202.438 132.452L202.48 132.438L202.452 132.396C202.27 132.102 201.934 131.528 201.234 131.094C200.324 130.534 199.148 130.464 198.685 130.464C196.935 130.464 196.151 131.108 195.885 131.304C195.045 131.934 194.639 132.802 194.639 133.965C194.639 136.163 196.207 137.535 198.713 137.535C199.316 137.535 200.478 137.451 201.402 136.863C202.088 136.429 202.354 135.953 202.592 135.533L202.62 135.491L201.542 135.267L201.528 135.295Z" fill="white"/>
<path d="M211.428 133.376H206.401V130.66H205.379V137.381H206.401V134.245H211.428V137.381H212.45V130.66H211.428V133.376Z" fill="white"/>
<path d="M216.803 136.499V134.329H221.858V133.474H216.803V131.556H222.012V130.66H215.795V137.381H222.236V136.499H216.803Z" fill="white"/>
<path d="M44.8923 112.19H40.6074V119.275H41.9937V116.615H44.9763C45.6344 116.615 46.7406 116.615 47.3848 115.719C47.6368 115.369 47.7768 114.906 47.7768 114.444C47.7768 113.8 47.5108 113.212 47.0487 112.806C46.5446 112.358 45.9285 112.19 44.8923 112.19ZM41.9797 113.408H44.7383C45.3124 113.408 45.7745 113.436 46.0685 113.73C46.2366 113.898 46.3206 114.108 46.3206 114.388C46.3206 114.724 46.1805 115.019 45.9145 115.187C45.6204 115.383 45.2004 115.383 44.8363 115.383H41.9657V113.408H41.9797Z" fill="white"/>
<path d="M58.2223 114.36C58.2223 113.492 57.8022 112.988 57.5641 112.778C56.934 112.204 56.1779 112.19 55.5477 112.19H50.8008V119.275H52.1731V116.615H55.0856L57.3401 119.275H59.1325L56.612 116.377C57.6902 116.097 58.2223 115.425 58.2223 114.36ZM56.822 114.402C56.822 114.626 56.766 114.822 56.64 114.977C56.3179 115.397 55.7018 115.397 55.2537 115.397H52.1731V113.408H55.6458C56.0519 113.422 56.4299 113.422 56.668 113.8C56.766 113.968 56.822 114.178 56.822 114.402Z" fill="white"/>
<path d="M63.5308 112.19H62.1445V119.275H63.5308V112.19Z" fill="white"/>
<path d="M70.9518 117.343C70.9238 117.399 70.9097 117.441 70.8817 117.497C70.8537 117.427 70.8117 117.343 70.7697 117.245L68.3892 112.19H66.877L70.2796 119.275H71.4979L74.8445 112.19H73.3322L70.9518 117.343Z" fill="white"/>
<path d="M80.5989 112.176H79.3386L75.6699 119.276H77.1962L78.0084 117.637H81.8452L82.6573 119.276H84.2116L80.6409 112.288L80.5989 112.176ZM79.8987 113.969L79.9408 113.885C79.9408 113.871 79.9548 113.857 79.9548 113.843C79.9688 113.871 79.9828 113.899 79.9968 113.927L81.257 116.433H78.6525L79.8987 113.969Z" fill="white"/>
<path d="M85.3457 113.408H88.0622V119.275H89.4205V113.408H92.151V112.19H85.3457V113.408Z" fill="white"/>
<path d="M96.5653 116.209H101.634V115.005H96.5653V113.436H101.774V112.19H95.207V119.275H102.012V118.029H96.5653V116.209Z" fill="white"/>
<path d="M120.535 114.36C120.535 113.492 120.115 112.988 119.877 112.778C119.247 112.204 118.49 112.19 117.86 112.19H113.113V119.275H114.486V116.615H117.398L119.653 119.275H121.445L118.924 116.377C119.989 116.097 120.535 115.425 120.535 114.36ZM119.12 114.402C119.12 114.626 119.064 114.822 118.938 114.977C118.616 115.397 118 115.397 117.552 115.397H114.472V113.408H117.944C118.35 113.422 118.728 113.422 118.966 113.8C119.064 113.968 119.12 114.178 119.12 114.402Z" fill="white"/>
<path d="M126.022 116.209H131.091V115.005H126.022V113.436H131.231V112.19H124.664V119.275H131.469V118.029H126.022V116.209Z" fill="white"/>
<path d="M137.115 113.478C137.479 113.296 138.137 113.226 138.627 113.226C139.439 113.226 140.069 113.394 140.559 113.745C140.685 113.829 140.755 113.899 140.867 114.011L141.021 114.165L142.254 113.661L142.1 113.451C141.889 113.156 141.721 112.96 141.371 112.722C140.657 112.246 139.761 112.022 138.599 112.022C136.484 112.022 135.266 112.806 135.266 114.179C135.266 114.697 135.448 115.103 135.812 115.453C136.372 115.957 137.003 116.013 138.711 116.153C140.083 116.265 140.867 116.377 140.867 117.063C140.867 117.777 140.097 118.197 138.809 118.197C137.815 118.197 137.045 118.001 136.428 117.581C136.176 117.413 136.092 117.315 136.008 117.217L135.91 117.105L134.664 117.623L134.818 117.833C135.014 118.113 135.532 118.87 136.975 119.22C137.451 119.346 138.165 119.43 138.753 119.43C140.279 119.43 141.315 119.038 141.847 118.281C142.1 117.917 142.226 117.511 142.226 117.049C142.226 115.719 141.161 115.271 140.531 115.117C140.223 115.047 139.915 115.005 139.649 114.977C139.341 114.949 139.047 114.921 138.739 114.893C138.445 114.865 138.137 114.837 137.843 114.809C137.255 114.753 136.961 114.697 136.778 114.487C136.68 114.389 136.638 114.263 136.638 114.123C136.638 113.941 136.722 113.675 137.115 113.478Z" fill="white"/>
<path d="M147.533 112.19H146.133V119.275H147.533V112.19Z" fill="white"/>
<path d="M157.825 112.974C156.872 112.19 155.864 112.19 155.136 112.19H151.607V119.275H154.492C155.542 119.275 156.97 119.275 158.007 118.253C158.385 117.875 159.001 117.035 159.001 115.677C159.001 114.178 158.259 113.338 157.825 112.974ZM154.73 118.043H152.994V113.38H155.178C155.766 113.394 156.424 113.394 156.984 113.954C157.223 114.178 157.615 114.71 157.615 115.649C157.615 116.069 157.531 116.685 157.138 117.189C156.522 117.987 155.654 118.043 154.73 118.043Z" fill="white"/>
<path d="M163.384 116.209H168.453V115.005H163.384V113.436H168.593V112.19H162.012V119.275H168.831V118.029H163.384V116.209Z" fill="white"/>
<path d="M178.689 117.007V117.063C178.689 117.175 178.689 117.259 178.703 117.343C178.619 117.259 178.535 117.161 178.409 117.021L173.858 112.19H172.584V119.275H173.914V114.612C173.914 114.388 173.914 114.234 173.914 114.094C173.942 114.136 173.984 114.178 174.026 114.22L178.745 119.219L178.801 119.289H180.033V112.204H178.703V117.007H178.689Z" fill="white"/>
<path d="M190.158 116.937C190.116 117.035 189.92 117.385 189.542 117.665C189.29 117.861 188.702 118.197 187.609 118.197C186.321 118.197 185.635 117.777 185.285 117.413C184.865 116.951 184.655 116.335 184.655 115.649C184.655 113.408 186.839 113.24 187.497 113.24C188.338 113.24 189.01 113.478 189.36 113.702C189.724 113.941 189.878 114.193 190.018 114.459L190.088 114.599L191.544 114.277L191.39 114.025C191.208 113.702 190.858 113.114 190.102 112.652C189.15 112.064 187.931 111.994 187.455 111.994C185.649 111.994 184.809 112.666 184.543 112.876C183.661 113.534 183.227 114.487 183.227 115.691C183.227 118.001 184.865 119.444 187.483 119.444C188.114 119.444 189.304 119.346 190.284 118.743C190.998 118.295 191.292 117.791 191.53 117.343L191.67 117.091L190.228 116.797L190.158 116.937Z" fill="white"/>
<path d="M196.097 116.209H201.166V115.005H196.097V113.436H201.306V112.19H194.725V119.275H201.544V118.029H196.097V116.209Z" fill="white"/>
<path d="M210.223 115.117C209.915 115.047 209.607 115.005 209.341 114.977C209.033 114.949 208.739 114.921 208.431 114.893C208.137 114.865 207.828 114.837 207.534 114.809C206.946 114.753 206.652 114.697 206.47 114.487C206.372 114.389 206.33 114.263 206.33 114.123C206.33 113.927 206.414 113.661 206.806 113.465C207.184 113.283 207.828 113.213 208.319 113.213C209.131 113.213 209.761 113.381 210.251 113.731C210.377 113.815 210.447 113.885 210.545 113.997L210.699 114.151L211.931 113.647L211.777 113.437C211.567 113.143 211.399 112.946 211.049 112.708C210.335 112.232 209.439 112.008 208.277 112.008C206.162 112.008 204.944 112.792 204.944 114.165C204.944 114.683 205.126 115.089 205.49 115.439C206.05 115.943 206.68 115.999 208.389 116.139C209.761 116.251 210.545 116.363 210.545 117.049C210.545 117.763 209.775 118.184 208.487 118.184C207.492 118.184 206.722 117.987 206.106 117.567C205.868 117.399 205.77 117.301 205.686 117.203L205.588 117.091L204.342 117.609L204.496 117.819C204.692 118.1 205.21 118.856 206.652 119.206C207.128 119.332 207.828 119.416 208.417 119.416C209.943 119.416 210.979 119.024 211.511 118.268C211.763 117.903 211.889 117.497 211.889 117.035C211.917 115.719 210.853 115.271 210.223 115.117Z" fill="white"/>
<path d="M23.2879 100.302H16.8047V99.3359H18.6811V83.1346H16.9587V82.1685H28.455C30.8915 82.1685 34.1821 82.2245 34.2242 82.2105L34.2381 82.2245L34.8823 87.8676H34.0281L33.9581 87.6295C32.9219 84.1288 32.1937 83.1206 28.455 83.1206H21.7057V91.0322H25.6684C29.0291 91.0322 30.0093 90.7242 30.0093 88.5677V88.2177H30.8635V94.7009H30.0093V94.3649C30.0093 92.8246 29.0571 91.9984 25.6684 91.9984H21.7057V99.3219H23.302V100.302H23.2879Z" fill="white"/>
<path d="M45.692 100.624C39.1247 100.624 35.582 96.6476 35.582 92.8949C35.582 88.0079 40.721 85.0813 45.692 85.0813C52.2593 85.0813 55.802 89.1001 55.802 92.8949C55.802 97.9219 50.593 100.624 45.692 100.624ZM45.692 85.9635C41.1971 85.9635 38.6206 88.498 38.6206 92.9089C38.6206 97.3337 41.1271 99.7702 45.692 99.7702C50.2569 99.7702 52.7774 97.3337 52.7774 92.9089C52.7774 88.498 50.2009 85.9635 45.692 85.9635Z" fill="white"/>
<path d="M66.3578 100.624C62.6611 100.624 58.2642 99.3082 58.2642 93.0629V86.2996H56.752V85.4314H62.7311V86.2996H61.0788V93.0629C61.0788 98.8881 64.3975 99.7703 66.3719 99.7703C69.4665 99.7703 72.7711 98.0059 72.7711 93.0629V86.2996H71.2728V85.4314H74.9275V86.2996H73.5553V93.0629C73.5273 98.65 69.6625 100.624 66.3578 100.624Z" fill="white"/>
<path d="M86.1155 93.693H80.5984V99.4342H81.9706V100.302H76.1875V99.4342H77.9098V86.2996H76.1875V85.4314H85.9894C87.6698 85.4314 92.7808 85.4314 92.7808 89.5762C92.7808 91.4526 91.7306 92.7549 89.7282 93.329C89.7142 93.329 88.58 93.693 86.1155 93.693ZM80.5984 92.8249H85.9614C88.5239 92.8249 89.7142 91.7887 89.7142 89.5762C89.7142 87.3358 88.5239 86.2996 85.9754 86.2996H80.5844V92.8249H80.5984Z" fill="white"/>
<path d="M122.018 83.8908L122.424 88.3157L121.612 88.2877L121.374 87.5456C120.253 84.2129 117.915 82.7986 114.246 82.7986C110.606 82.7986 108.435 83.8348 108.435 85.5572C108.435 87.4335 111.446 88.2037 114.624 89.0019C118.559 89.9961 123.012 91.1163 123.012 94.841C123.012 98.7338 120.015 100.708 114.106 100.708C114.106 100.708 109.751 100.554 106.377 99.2799L105.396 94.0289H106.139L106.433 94.827C107.637 97.8236 110.648 99.756 114.092 99.756C116.641 99.756 120.912 99.2939 120.912 96.1993C120.912 93.9868 117.719 93.2167 114.358 92.3905C110.409 91.4383 106.335 90.4441 106.335 86.9154C106.335 83.6948 109.205 81.8464 114.232 81.8464C115.759 81.8464 116.669 82.0285 118.139 82.4345C118.139 82.4345 120.646 83.1627 122.018 83.8908Z" fill="white"/>
<path d="M140.869 100.428H140.799C140.771 100.428 138.222 100.302 136.808 100.302H125.676V99.434H127.328V86.2994H125.676V85.4312H136.444C137.802 85.4312 139.202 85.4312 139.525 85.3192L140.337 85.2212L140.827 89.394L140.169 89.422L140.099 89.212C139.216 86.4534 137.858 86.2994 136.444 86.2994H130.017V92.1246H133.629C136.206 92.1246 137.06 91.7885 137.06 89.9401V89.6181H137.83V95.3312H137.06V95.0091C137.06 93.6229 136.22 92.9927 133.629 92.9927H130.017V99.434H136.794C139.272 99.434 139.847 98.6639 140.687 96.6895L140.757 96.4794H141.569L140.869 100.428Z" fill="white"/>
<path d="M157.407 100.302V99.4342H158.947L156.707 95.4014H147.325L145.07 99.4342H146.611V100.302H142.844V99.4342H144.16L151.498 86.2996H150.195V85.4314H154.186L154.27 85.5854L161.93 99.4342H163.386V100.302H157.407ZM147.815 94.5332H156.23L152.03 86.9577L147.815 94.5332Z" fill="white"/>
<path d="M191.446 99.7564C186.895 99.7564 184.375 97.3199 184.375 92.895C184.375 88.4841 186.951 85.9496 191.446 85.9496C195.955 85.9496 198.531 88.4841 198.531 92.895C198.531 97.3199 196.011 99.7564 191.446 99.7564ZM191.446 85.0955C186.475 85.0955 181.336 88.022 181.336 92.909C181.336 96.6478 184.879 100.625 191.446 100.625C196.347 100.625 201.556 97.922 201.556 92.909C201.556 89.1143 198.013 85.0955 191.446 85.0955Z" fill="white"/>
<path d="M202.816 85.4175V86.2856H203.979L204.637 86.9018V99.4343H202.872V100.302H206.989V99.4343H205.407V87.6299L219.48 100.863L219.634 101.017V86.2856H220.964V85.4175H217.239V86.2856H218.864V96.6197L207.031 85.4455L207.003 85.4175H202.816Z" fill="white"/>
<path d="M94.5057 99.7838C92.2373 99.6998 91.9992 98.8457 91.4251 97.7254L89.3667 93.2585H86.3281L90.1369 100.638H94.5198L94.5057 99.7838Z" fill="white"/>
<path d="M178.352 86.9577L178.674 90.5704L178.016 90.5564L177.82 89.9543C176.896 87.2377 174.992 86.0755 171.995 86.0755C169.026 86.0755 167.248 86.9157 167.248 88.33C167.248 89.8703 169.713 90.4864 172.317 91.1445C175.538 91.9567 179.164 92.8669 179.164 95.9195C179.164 99.1121 176.714 100.722 171.883 100.722C171.883 100.722 168.326 100.596 165.568 99.5602L164.77 95.2613H165.372L165.61 95.9055C166.604 98.3559 169.054 99.9243 171.869 99.9243C173.955 99.9243 177.442 99.5462 177.442 97.0117C177.442 95.2053 174.838 94.5752 172.079 93.9031C168.858 93.1189 165.526 92.3068 165.526 89.4222C165.526 86.7897 167.878 85.2773 171.981 85.2773C173.227 85.2773 173.969 85.4314 175.174 85.7674C175.188 85.7674 177.246 86.3696 178.352 86.9577Z" fill="white"/>
<path d="M236.127 86.9577L236.449 90.5704L235.791 90.5564L235.595 89.9543C234.671 87.2377 232.767 86.0755 229.77 86.0755C226.801 86.0755 225.023 86.9157 225.023 88.33C225.023 89.8703 227.488 90.4864 230.092 91.1445C233.313 91.9567 236.953 92.8669 236.953 95.9195C236.953 99.1121 234.503 100.722 229.672 100.722C229.672 100.722 226.115 100.596 223.357 99.5602L222.559 95.2613H223.161L223.399 95.9055C224.393 98.3559 226.843 99.9243 229.658 99.9243C231.744 99.9243 235.231 99.5462 235.231 97.0117C235.231 95.2053 232.627 94.5752 229.868 93.9031C226.647 93.1189 223.315 92.3068 223.315 89.4222C223.315 86.7897 225.667 85.2773 229.756 85.2773C231.002 85.2773 231.744 85.4314 232.949 85.7674C232.949 85.7674 235.007 86.3696 236.127 86.9577Z" fill="white"/>
<path d="M151.034 42.3723C149.759 42.8904 148.961 43.8146 149.269 45.3969C150.796 44.8928 151.202 43.7306 151.034 42.3723Z" fill="white"/>
<path d="M145.926 43.2964C146.164 44.6407 146.906 45.6349 148.516 45.6489C148.334 44.0665 147.284 43.4224 145.926 43.2964Z" fill="white"/>
<path d="M148.502 49.7802C148.432 48.1839 147.368 47.5538 145.926 47.4277C146.094 48.772 146.794 49.7522 148.502 49.7802Z" fill="white"/>
<path d="M143.852 28.6074C142.48 28.7334 141.444 29.3636 141.262 30.9599C142.858 30.9459 143.6 29.9657 143.852 28.6074Z" fill="white"/>
<path d="M137.662 27.4316C137.9 28.7899 138.642 29.7701 140.253 29.7841C140.071 28.2018 139.02 27.5577 137.662 27.4316Z" fill="white"/>
<path d="M137.299 22.5163C138.909 22.4883 139.637 21.5081 139.889 20.1638C138.517 20.2758 137.467 20.92 137.299 22.5163Z" fill="white"/>
<path d="M138.542 16.5796C137.281 17.1257 136.483 18.0639 136.819 19.6322C138.346 19.1001 138.738 17.9379 138.542 16.5796Z" fill="white"/>
<path d="M134.037 17.7273C134.079 19.0996 134.667 20.1638 136.25 20.4158C136.306 18.8195 135.353 18.0354 134.037 17.7273Z" fill="white"/>
<path d="M133.447 13.8908C135.044 13.8628 135.786 12.8826 136.038 11.5383C134.666 11.6504 133.615 12.2945 133.447 13.8908Z" fill="white"/>
<path d="M134.792 8.28955C133.602 8.96168 132.916 9.96989 133.406 11.4962C134.848 10.8101 135.114 9.61982 134.792 8.28955Z" fill="white"/>
<path d="M132.986 12.6307C133.042 11.0344 132.104 10.2502 130.773 9.94214C130.815 11.3144 131.404 12.3786 132.986 12.6307Z" fill="white"/>
<path d="M132.116 14.955C131.948 13.3727 130.897 12.7286 129.539 12.6025C129.777 13.9468 130.505 14.927 132.116 14.955Z" fill="white"/>
<path d="M127.831 18.0918C128.293 17.7977 133.25 14.8991 133.25 14.8991C133.264 14.8991 133.278 14.8851 133.278 14.8431L133.054 13.0928H132.984C132.984 13.0928 133.054 13.8349 133.026 14.129C132.998 14.465 132.956 14.5911 132.704 14.7451L127.201 17.5737C127.215 17.9937 127.215 18.4278 127.229 18.8619C127.299 18.6099 127.467 18.3158 127.831 18.0918Z" fill="white"/>
<path d="M126.614 2.45061C126.432 0.854295 125.395 0.22417 124.037 0.0981445C124.275 1.44241 125.017 2.42261 126.614 2.45061Z" fill="white"/>
<path d="M126.573 5.05486C126.405 3.47255 125.354 2.82842 123.996 2.70239C124.248 4.04666 124.976 5.02685 126.573 5.05486Z" fill="white"/>
<path d="M126.528 7.63152C126.36 6.04921 125.309 5.40508 123.951 5.27905C124.203 6.62332 124.931 7.61752 126.528 7.63152Z" fill="white"/>
<path d="M126.5 10.2359C126.318 8.65361 125.282 8.00948 123.924 7.89746C124.162 9.22773 124.89 10.2079 126.5 10.2359Z" fill="white"/>
<path d="M126.459 12.8405C126.291 11.2582 125.241 10.6141 123.883 10.488C124.121 11.8323 124.863 12.8125 126.459 12.8405Z" fill="white"/>
<path d="M126.418 15.4311C126.236 13.8348 125.2 13.2046 123.842 13.0786C124.08 14.4229 124.822 15.4031 126.418 15.4311Z" fill="white"/>
<path d="M122.96 9.50806C121.658 9.92814 120.789 10.7963 120.971 12.3786C122.526 12.0006 123.03 10.8803 122.96 9.50806Z" fill="white"/>
<path d="M121.025 14.2829C122.622 14.2549 123.364 13.2747 123.602 11.9304C122.244 12.0564 121.207 12.7006 121.025 14.2829Z" fill="white"/>
<path d="M120.397 12.6866C120.621 11.1043 119.767 10.2221 118.479 9.76001C118.381 11.1323 118.857 12.2525 120.397 12.6866Z" fill="white"/>
<path d="M120.061 14.4787C119.893 12.8824 118.843 12.2382 117.484 12.1262C117.736 13.4705 118.465 14.4507 120.061 14.4787Z" fill="white"/>
<path d="M123.881 21.7603C122.509 21.8723 121.473 22.5164 121.291 24.1267C122.887 24.0987 123.629 23.1185 123.881 21.7603Z" fill="white"/>
<path d="M119.387 23.1469C120.997 23.1189 121.725 22.1387 121.977 20.7944C120.605 20.9065 119.569 21.5506 119.387 23.1469Z" fill="white"/>
<path d="M125.774 22.7405C124.402 22.8525 123.366 23.4966 123.184 25.0929C124.794 25.0789 125.536 24.0987 125.774 22.7405Z" fill="white"/>
<path d="M122.385 20.0798C123.981 20.0518 124.723 19.0716 124.975 17.7273C123.603 17.8393 122.553 18.4834 122.385 20.0798Z" fill="white"/>
<path d="M120.562 19.0156C122.159 18.9875 122.901 18.0074 123.153 16.6631C121.781 16.7891 120.731 17.4332 120.562 19.0156Z" fill="white"/>
<path d="M118.713 17.9513C120.323 17.9233 121.051 16.9431 121.289 15.5989C119.931 15.7249 118.881 16.355 118.713 17.9513Z" fill="white"/>
<path d="M120.075 19.7722C118.703 19.8842 117.666 20.5284 117.484 22.1247C119.081 22.0967 119.823 21.1165 120.075 19.7722Z" fill="white"/>
<path d="M117.009 19.6181C117.205 18.0217 116.337 17.1536 115.034 16.7195C114.95 18.0918 115.441 19.226 117.009 19.6181Z" fill="white"/>
<path d="M116.505 22.0405C116.323 20.4441 115.286 19.8 113.914 19.688C114.166 21.0323 114.894 22.0125 116.505 22.0405Z" fill="white"/>
<path d="M117.876 30.1619C116.503 30.2739 115.467 30.918 115.285 32.5143C116.881 32.5003 117.624 31.5201 117.876 30.1619Z" fill="white"/>
<path d="M113.436 31.4784C115.046 31.4504 115.774 30.4702 116.026 29.126C114.654 29.238 113.618 29.8681 113.436 31.4784Z" fill="white"/>
<path d="M119.766 31.1423C118.394 31.2684 117.358 31.8985 117.176 33.4948C118.786 33.4808 119.514 32.5006 119.766 31.1423Z" fill="white"/>
<path d="M121.669 32.1223C120.31 32.2483 119.26 32.8785 119.078 34.4748C120.688 34.4608 121.417 33.4806 121.669 32.1223Z" fill="white"/>
<path d="M123.561 33.1023C122.189 33.2283 121.153 33.8584 120.971 35.4548C122.581 35.4408 123.323 34.4466 123.561 33.1023Z" fill="white"/>
<path d="M125.479 34.0688C124.107 34.1949 123.071 34.839 122.889 36.4213C124.485 36.4073 125.227 35.4271 125.479 34.0688Z" fill="white"/>
<path d="M122.748 30.2179C124.358 30.1899 125.101 29.2097 125.339 27.8655C123.966 27.9775 122.93 28.6216 122.748 30.2179Z" fill="white"/>
<path d="M120.914 29.1398C122.524 29.1118 123.253 28.1316 123.505 26.7874C122.132 26.8994 121.082 27.5435 120.914 29.1398Z" fill="white"/>
<path d="M119.078 28.0617C120.688 28.0337 121.417 27.0535 121.669 25.7092C120.31 25.8353 119.26 26.4654 119.078 28.0617Z" fill="white"/>
<path d="M117.273 26.9975C118.884 26.9695 119.612 25.9893 119.864 24.645C118.492 24.757 117.441 25.4012 117.273 26.9975Z" fill="white"/>
<path d="M115.438 25.9194C117.048 25.8914 117.776 24.9112 118.028 23.5669C116.656 23.6789 115.606 24.323 115.438 25.9194Z" fill="white"/>
<path d="M115.971 26.7175C114.599 26.8296 113.563 27.4737 113.381 29.07C114.991 29.042 115.719 28.0618 115.971 26.7175Z" fill="white"/>
<path d="M113.071 27.7536C113.463 26.1993 112.707 25.2331 111.461 24.645C111.223 25.9893 111.573 27.1655 113.071 27.7536Z" fill="white"/>
<path d="M112.637 29.8122C112.455 28.2159 111.419 27.5717 110.047 27.4597C110.285 28.804 111.027 29.7842 112.637 29.8122Z" fill="white"/>
<path d="M112.288 32.1784C112.12 30.5821 111.07 29.9379 109.697 29.8259C109.935 31.1562 110.677 32.1504 112.288 32.1784Z" fill="white"/>
<path d="M116.758 38.7316C118.368 38.7036 119.096 37.7234 119.348 36.3792C117.976 36.4912 116.926 37.1353 116.758 38.7316Z" fill="white"/>
<path d="M116.758 42.4286C118.368 42.4006 119.096 41.4204 119.348 40.0762C117.976 40.1882 116.926 40.8323 116.758 42.4286Z" fill="white"/>
<path d="M114.936 37.6675C116.546 37.6395 117.274 36.6593 117.526 35.301C116.168 35.4271 115.118 36.0712 114.936 37.6675Z" fill="white"/>
<path d="M113.127 36.6032C114.737 36.5752 115.465 35.595 115.717 34.2507C114.345 34.3628 113.309 35.0069 113.127 36.6032Z" fill="white"/>
<path d="M111.309 35.539C112.919 35.511 113.647 34.5308 113.899 33.1865C112.527 33.2985 111.491 33.9427 111.309 35.539Z" fill="white"/>
<path d="M148.85 45.5931C148.85 45.5931 149.088 48.2396 149.018 49.3038C148.934 50.508 148.78 50.9281 147.856 51.5302L127.986 61.7523C127.958 59.8059 127.916 57.5794 127.874 55.157V54.5128C127.846 53.1826 128.21 52.4684 129.792 51.4742C131.151 50.6061 145.826 42.0364 145.826 42.0364C145.854 42.0224 145.91 41.9804 145.91 41.8543L145.237 36.6593H145.013C145.013 36.6593 145.209 38.8437 145.153 39.7119C145.083 40.7061 144.957 41.0562 144.201 41.5463L127.79 49.9899C127.748 47.4694 127.692 44.8369 127.65 42.1344L127.636 41.4062C127.664 40.5661 127.958 40.062 129.022 39.3898C130.044 38.7457 140.995 32.3464 140.995 32.3464C141.023 32.3324 141.065 32.3044 141.051 32.2204L140.546 28.3416H140.378C140.378 28.3416 140.532 29.98 140.49 30.6241C140.434 31.3662 140.336 31.6323 139.776 31.9964L127.566 38.2836C127.51 35.245 127.454 32.1784 127.398 29.1538C127.482 28.7197 127.734 28.1736 128.392 27.7395C129.12 27.2774 136.962 22.6985 136.962 22.6985C136.976 22.6845 137.004 22.6705 137.004 22.6005L136.64 19.8279H136.514C136.514 19.8279 136.626 20.9902 136.584 21.4663C136.542 21.9984 136.472 22.1804 136.066 22.4465L127.328 26.9414C127.272 24.1408 127.23 21.4243 127.188 18.8477C127.174 18.4137 127.174 17.9796 127.16 17.5595C126.978 7.5335 126.838 0.0840186 126.838 0.0840186C126.838 0.0420103 126.81 0 126.754 0C126.712 0 126.67 0.0420103 126.67 0.0840186C126.67 0.0840186 126.544 7.5195 126.362 17.5455C126.362 17.7415 126.348 17.9516 126.348 18.1476C126.348 17.9516 126.348 17.7415 126.362 17.5455L120.901 14.7309C120.649 14.5629 120.606 14.4509 120.578 14.1148C120.564 13.8207 120.62 13.0786 120.62 13.0786H120.55L120.326 14.8289C120.326 14.871 120.34 14.885 120.354 14.885C120.354 14.885 125.311 17.7835 125.774 18.0776C126.096 18.2736 126.264 18.5257 126.348 18.7637C126.306 21.3542 126.25 24.1128 126.208 26.9274L117.498 22.4465C117.092 22.1804 117.022 21.9984 116.98 21.4663C116.952 21.0042 117.05 19.8279 117.05 19.8279H116.924L116.56 22.6005C116.56 22.6705 116.588 22.6845 116.602 22.6985C116.602 22.6985 124.443 27.2774 125.171 27.7395C125.788 28.1316 126.04 28.6217 126.152 29.0418C126.096 32.0944 126.04 35.203 125.984 38.2696L113.773 31.9824C113.213 31.6183 113.101 31.3522 113.059 30.6101C113.017 29.952 113.171 28.3276 113.171 28.3276H113.003L112.499 32.2064C112.499 32.2904 112.541 32.3184 112.555 32.3324C112.555 32.3324 123.519 38.7317 124.541 39.3758C125.633 40.062 125.914 40.5801 125.928 41.4622L125.914 42.2464C125.872 44.9069 125.816 47.4974 125.774 49.9759L109.376 41.5323C108.62 41.0422 108.48 40.6921 108.424 39.6979C108.368 38.8297 108.564 36.6453 108.564 36.6453H108.34L107.668 41.8403C107.668 41.9523 107.724 41.9943 107.752 42.0224C107.752 42.0224 122.427 50.5921 123.785 51.4602C125.353 52.4544 125.718 53.1686 125.704 54.4988V54.5128C125.662 57.1874 125.619 59.6239 125.577 61.7383L105.708 51.5162C104.797 50.9141 104.629 50.494 104.545 49.2898C104.475 48.2256 104.713 45.5791 104.713 45.5791H104.433L103.621 51.8663C103.621 52.0063 103.677 52.0623 103.719 52.0763C103.719 52.0763 121.489 62.4524 123.141 63.5026C125.073 64.7209 125.465 64.8049 125.465 67.0453C125.465 67.1433 125.423 69.7339 125.423 69.8319C125.423 71.7783 123.883 71.8343 123.883 71.8343V72.2124H129.582V71.8343C129.582 71.8343 128.042 71.7783 128.042 69.8319C128.042 69.7339 128.014 67.2414 128.014 67.0453C128.014 64.8049 128.406 64.7209 130.338 63.5026C131.991 62.4524 149.76 52.0763 149.76 52.0763C149.802 52.0483 149.872 52.0063 149.858 51.8663L149.046 45.5791H148.85V45.5931Z" fill="white"/>
<path d="M120.494 40.9723C122.104 40.9443 122.833 39.9641 123.085 38.6199C121.712 38.7319 120.662 39.376 120.494 40.9723Z" fill="white"/>
<path d="M124.891 39.7817C123.519 39.8938 122.483 40.5379 122.301 42.1342C123.911 42.1202 124.653 41.14 124.891 39.7817Z" fill="white"/>
<path d="M134.565 34.4469C135.825 33.4527 135.811 32.2204 135.181 31.0022C134.159 31.9264 133.725 33.0746 134.565 34.4469Z" fill="white"/>
<path d="M131.965 32.7107C130.956 33.6349 130.522 34.7831 131.348 36.1554C132.609 35.1472 132.595 33.9289 131.965 32.7107Z" fill="white"/>
<path d="M128.547 27.9634C128.799 29.3076 129.527 30.2878 131.137 30.3158C130.955 28.7195 129.919 28.0754 128.547 27.9634Z" fill="white"/>
<path d="M137.772 38.5358C137.59 36.9395 136.554 36.2954 135.182 36.1833C135.434 37.5276 136.162 38.5078 137.772 38.5358Z" fill="white"/>
<path d="M134.54 40.2861C134.358 38.6897 133.321 38.0456 131.949 37.9336C132.187 39.2779 132.929 40.2581 134.54 40.2861Z" fill="white"/>
<path d="M143.628 53.2527C143.446 51.6564 142.395 51.0123 141.037 50.8862C141.275 52.2445 142.017 53.2247 143.628 53.2527Z" fill="white"/>
<path d="M139.903 54.9751C139.721 53.3788 138.671 52.7347 137.312 52.6086C137.551 53.9669 138.293 54.9471 139.903 54.9751Z" fill="white"/>
<path d="M135.59 48.6035C135.842 49.9618 136.57 50.942 138.18 50.956C137.998 49.3737 136.948 48.7295 135.59 48.6035Z" fill="white"/>
<path d="M133.139 58.4195C132.957 56.8231 131.907 56.179 130.549 56.053C130.787 57.4112 131.529 58.3914 133.139 58.4195Z" fill="white"/>
<path d="M147.462 54.4009C147.21 55.9692 148.12 56.8234 149.506 57.2294C149.618 55.8852 149.128 54.779 147.462 54.4009Z" fill="white"/>
<path d="M143.893 56.9771C143.963 58.5734 145.027 59.2315 146.483 59.3435C146.329 57.9993 145.615 57.0191 143.893 56.9771Z" fill="white"/>
<path d="M138.444 62.2423C139.943 61.6261 140.265 60.4359 139.999 59.0776C138.766 59.6938 138.024 60.688 138.444 62.2423Z" fill="white"/>
<path d="M144.817 37.9474C144.635 36.3511 143.599 35.707 142.227 35.595C142.479 36.9392 143.207 37.9194 144.817 37.9474Z" fill="white"/>
<path d="M144.719 40.3002C144.551 38.7039 143.501 38.0598 142.129 37.9478C142.367 39.292 143.109 40.2722 144.719 40.3002Z" fill="white"/>
<path d="M146.119 41.8823C147.729 41.8542 148.458 40.8741 148.71 39.5298C147.351 39.6418 146.301 40.2859 146.119 41.8823Z" fill="white"/>
<path d="M148.317 35.595C146.945 35.707 145.895 36.3511 145.727 37.9474C147.337 37.9194 148.079 36.9392 148.317 35.595Z" fill="white"/>
</svg>
